<mxfile host="app.diagrams.net" modified="2023-11-28T10:11:08.945Z" agent="Mozilla/5.0 (Macintosh; Intel Mac OS X 10_15_7) AppleWebKit/537.36 (KHTML, like Gecko) Chrome/119.0.0.0 Safari/537.36" etag="WCb9eKTbt10y1_AGdX_8" version="22.1.4" type="github" pages="5">
  <diagram name="[0] arch" id="ZMCx_UzSzWk1nDmMVq2M">
    <mxGraphModel dx="1296" dy="701" grid="1" gridSize="1" guides="1" tooltips="1" connect="1" arrows="1" fold="1" page="1" pageScale="1" pageWidth="827" pageHeight="1169" background="#495766" math="0" shadow="0">
      <root>
        <mxCell id="xg3VUZHEJCf5JJvFxYuz-0" />
        <mxCell id="xg3VUZHEJCf5JJvFxYuz-1" parent="xg3VUZHEJCf5JJvFxYuz-0" />
        <mxCell id="l5OnVXgXOkP5nOk7Ud_w-3" value="" style="rounded=0;whiteSpace=wrap;html=1;strokeColor=none;fillColor=#EDF3F5;fontFamily=Google Sans;fontSource=https%3A%2F%2Ffonts.googleapis.com%2Fcss%3Ffamily%3DGoogle%2BSans;" parent="xg3VUZHEJCf5JJvFxYuz-1" vertex="1">
          <mxGeometry x="152" y="640" width="494" height="60" as="geometry" />
        </mxCell>
        <mxCell id="l5OnVXgXOkP5nOk7Ud_w-4" value="&lt;font&gt;Hardware&lt;/font&gt;" style="text;html=1;align=left;verticalAlign=middle;resizable=0;points=[];autosize=1;fontSize=14;fontFamily=Google Sans;fontStyle=0;fontColor=#001135;fontSource=https%3A%2F%2Ffonts.googleapis.com%2Fcss%3Ffamily%3DGoogle%2BSans;" parent="xg3VUZHEJCf5JJvFxYuz-1" vertex="1">
          <mxGeometry x="161" y="655" width="80" height="30" as="geometry" />
        </mxCell>
        <mxCell id="l5OnVXgXOkP5nOk7Ud_w-5" value="eXtensible Data Path (XDP)" style="rounded=0;whiteSpace=wrap;html=1;strokeColor=none;fillColor=#98A2AE;fontFamily=Google Sans;fontColor=#FFFFFF;fontSource=https%3A%2F%2Ffonts.googleapis.com%2Fcss%3Ffamily%3DGoogle%2BSans;" parent="xg3VUZHEJCf5JJvFxYuz-1" vertex="1">
          <mxGeometry x="264" y="655.5" width="371" height="29" as="geometry" />
        </mxCell>
        <mxCell id="l5OnVXgXOkP5nOk7Ud_w-6" value="" style="rounded=0;whiteSpace=wrap;html=1;strokeColor=none;fillColor=#EDF3F5;fontFamily=Google Sans;fontSource=https%3A%2F%2Ffonts.googleapis.com%2Fcss%3Ffamily%3DGoogle%2BSans;" parent="xg3VUZHEJCf5JJvFxYuz-1" vertex="1">
          <mxGeometry x="152" y="513" width="494" height="121" as="geometry" />
        </mxCell>
        <mxCell id="l5OnVXgXOkP5nOk7Ud_w-7" value="&lt;font&gt;Infrastructure&lt;/font&gt;" style="text;html=1;align=left;verticalAlign=middle;resizable=0;points=[];autosize=1;fontSize=14;fontFamily=Google Sans;fontStyle=0;fontColor=#001135;fontSource=https%3A%2F%2Ffonts.googleapis.com%2Fcss%3Ffamily%3DGoogle%2BSans;" parent="xg3VUZHEJCf5JJvFxYuz-1" vertex="1">
          <mxGeometry x="161" y="557.94" width="106" height="30" as="geometry" />
        </mxCell>
        <mxCell id="l5OnVXgXOkP5nOk7Ud_w-8" value="NetOps Development Kit (NDK)" style="rounded=0;whiteSpace=wrap;html=1;strokeColor=#00C9FF;fillColor=#98A2AE;fontFamily=Google Sans;fontColor=#FFFFFF;fontSource=https%3A%2F%2Ffonts.googleapis.com%2Fcss%3Ffamily%3DGoogle%2BSans;" parent="xg3VUZHEJCf5JJvFxYuz-1" vertex="1">
          <mxGeometry x="399" y="528" width="236" height="29" as="geometry" />
        </mxCell>
        <mxCell id="l5OnVXgXOkP5nOk7Ud_w-9" value="Impart Database (IDB)" style="rounded=0;whiteSpace=wrap;html=1;strokeColor=none;fillColor=#98A2AE;fontFamily=Google Sans;fontColor=#FFFFFF;fontSource=https%3A%2F%2Ffonts.googleapis.com%2Fcss%3Ffamily%3DGoogle%2BSans;" parent="xg3VUZHEJCf5JJvFxYuz-1" vertex="1">
          <mxGeometry x="307" y="591" width="328" height="29" as="geometry" />
        </mxCell>
        <mxCell id="l5OnVXgXOkP5nOk7Ud_w-10" value="" style="rounded=0;whiteSpace=wrap;html=1;strokeColor=none;fillColor=#EDF3F5;fontFamily=Google Sans;fontSource=https%3A%2F%2Ffonts.googleapis.com%2Fcss%3Ffamily%3DGoogle%2BSans;" parent="xg3VUZHEJCf5JJvFxYuz-1" vertex="1">
          <mxGeometry x="152" y="444" width="494" height="61" as="geometry" />
        </mxCell>
        <mxCell id="l5OnVXgXOkP5nOk7Ud_w-11" value="&lt;font&gt;Network&lt;br&gt;Applications&lt;/font&gt;" style="text;html=1;align=left;verticalAlign=middle;resizable=0;points=[];autosize=1;fontSize=14;fontFamily=Google Sans;fontStyle=0;fontColor=#001135;fontSource=https%3A%2F%2Ffonts.googleapis.com%2Fcss%3Ffamily%3DGoogle%2BSans;" parent="xg3VUZHEJCf5JJvFxYuz-1" vertex="1">
          <mxGeometry x="161" y="451" width="97" height="47" as="geometry" />
        </mxCell>
        <mxCell id="l5OnVXgXOkP5nOk7Ud_w-13" value="custom&lt;br&gt;app-1" style="rounded=0;whiteSpace=wrap;html=1;strokeColor=none;fillColor=#00C9FF;fontFamily=Google Sans;fontColor=#FFFFFF;fontSource=https%3A%2F%2Ffonts.googleapis.com%2Fcss%3Ffamily%3DGoogle%2BSans;" parent="xg3VUZHEJCf5JJvFxYuz-1" vertex="1">
          <mxGeometry x="401" y="451" width="80" height="34" as="geometry" />
        </mxCell>
        <mxCell id="l5OnVXgXOkP5nOk7Ud_w-14" value="custom&lt;br&gt;app-2" style="rounded=0;whiteSpace=wrap;html=1;strokeColor=none;fillColor=#00C9FF;fontFamily=Google Sans;fontColor=#FFFFFF;fontSource=https%3A%2F%2Ffonts.googleapis.com%2Fcss%3Ffamily%3DGoogle%2BSans;" parent="xg3VUZHEJCf5JJvFxYuz-1" vertex="1">
          <mxGeometry x="494" y="451" width="80" height="34" as="geometry" />
        </mxCell>
        <mxCell id="l5OnVXgXOkP5nOk7Ud_w-15" value="" style="rounded=0;whiteSpace=wrap;html=1;strokeColor=none;fillColor=#EDF3F5;fontFamily=Google Sans;fontSource=https%3A%2F%2Ffonts.googleapis.com%2Fcss%3Ffamily%3DGoogle%2BSans;" parent="xg3VUZHEJCf5JJvFxYuz-1" vertex="1">
          <mxGeometry x="152" y="340" width="494" height="97" as="geometry" />
        </mxCell>
        <mxCell id="l5OnVXgXOkP5nOk7Ud_w-16" value="Management" style="text;html=1;align=left;verticalAlign=middle;resizable=0;points=[];autosize=1;fontSize=14;fontFamily=Google Sans;fontStyle=0;fontColor=#001135;fontSource=https%3A%2F%2Ffonts.googleapis.com%2Fcss%3Ffamily%3DGoogle%2BSans;" parent="xg3VUZHEJCf5JJvFxYuz-1" vertex="1">
          <mxGeometry x="161" y="374.5" width="102" height="30" as="geometry" />
        </mxCell>
        <mxCell id="l5OnVXgXOkP5nOk7Ud_w-17" value="gNMI" style="rounded=0;whiteSpace=wrap;html=1;strokeColor=none;fillColor=#98A2AE;fontFamily=Google Sans;fontColor=#FFFFFF;fontSource=https%3A%2F%2Ffonts.googleapis.com%2Fcss%3Ffamily%3DGoogle%2BSans;" parent="xg3VUZHEJCf5JJvFxYuz-1" vertex="1">
          <mxGeometry x="307" y="344" width="80" height="29" as="geometry" />
        </mxCell>
        <mxCell id="l5OnVXgXOkP5nOk7Ud_w-18" value="JSON-RPC" style="rounded=0;whiteSpace=wrap;html=1;strokeColor=none;fillColor=#98A2AE;fontFamily=Google Sans;fontColor=#FFFFFF;fontSource=https%3A%2F%2Ffonts.googleapis.com%2Fcss%3Ffamily%3DGoogle%2BSans;" parent="xg3VUZHEJCf5JJvFxYuz-1" vertex="1">
          <mxGeometry x="399" y="344" width="80" height="29" as="geometry" />
        </mxCell>
        <mxCell id="l5OnVXgXOkP5nOk7Ud_w-19" value="CLI" style="rounded=0;whiteSpace=wrap;html=1;strokeColor=none;fillColor=#98A2AE;fontFamily=Google Sans;fontColor=#FFFFFF;fontSource=https%3A%2F%2Ffonts.googleapis.com%2Fcss%3Ffamily%3DGoogle%2BSans;" parent="xg3VUZHEJCf5JJvFxYuz-1" vertex="1">
          <mxGeometry x="491" y="344" width="80" height="29" as="geometry" />
        </mxCell>
        <mxCell id="l5OnVXgXOkP5nOk7Ud_w-22" value="bgp" style="rounded=0;whiteSpace=wrap;html=1;strokeColor=none;fillColor=#98A2AE;fontFamily=Google Sans;fontColor=#FFFFFF;fontSource=https%3A%2F%2Ffonts.googleapis.com%2Fcss%3Ffamily%3DGoogle%2BSans;" parent="xg3VUZHEJCf5JJvFxYuz-1" vertex="1">
          <mxGeometry x="307" y="451" width="80" height="34" as="geometry" />
        </mxCell>
        <mxCell id="l5OnVXgXOkP5nOk7Ud_w-24" value="" style="rounded=0;whiteSpace=wrap;html=1;strokeColor=none;fillColor=#98A2AE;fontFamily=Google Sans;fontColor=#FFFFFF;fontSource=https%3A%2F%2Ffonts.googleapis.com%2Fcss%3Ffamily%3DGoogle%2BSans;" parent="xg3VUZHEJCf5JJvFxYuz-1" vertex="1">
          <mxGeometry x="289" y="390" width="304" height="44" as="geometry" />
        </mxCell>
        <mxCell id="l5OnVXgXOkP5nOk7Ud_w-20" value="app-1 YANG" style="rounded=0;whiteSpace=wrap;html=1;strokeColor=none;fillColor=#4BDD33;fontFamily=Google Sans;fontColor=#FFFFFF;fontSource=https%3A%2F%2Ffonts.googleapis.com%2Fcss%3Ffamily%3DGoogle%2BSans;" parent="xg3VUZHEJCf5JJvFxYuz-1" vertex="1">
          <mxGeometry x="401" y="410" width="80" height="20" as="geometry" />
        </mxCell>
        <mxCell id="l5OnVXgXOkP5nOk7Ud_w-21" value="app-2 YANG" style="rounded=0;whiteSpace=wrap;html=1;strokeColor=none;fillColor=#4BDD33;fontFamily=Google Sans;fontColor=#FFFFFF;fontSource=https%3A%2F%2Ffonts.googleapis.com%2Fcss%3Ffamily%3DGoogle%2BSans;" parent="xg3VUZHEJCf5JJvFxYuz-1" vertex="1">
          <mxGeometry x="495" y="410" width="80" height="20" as="geometry" />
        </mxCell>
        <mxCell id="l5OnVXgXOkP5nOk7Ud_w-23" value="bgp YANG" style="rounded=0;whiteSpace=wrap;html=1;strokeColor=none;fillColor=#4BDD33;fontFamily=Google Sans;fontColor=#FFFFFF;fontSource=https%3A%2F%2Ffonts.googleapis.com%2Fcss%3Ffamily%3DGoogle%2BSans;" parent="xg3VUZHEJCf5JJvFxYuz-1" vertex="1">
          <mxGeometry x="307" y="410" width="80" height="20" as="geometry" />
        </mxCell>
        <mxCell id="l5OnVXgXOkP5nOk7Ud_w-25" value="&lt;font style=&quot;font-size: 12px;&quot;&gt;SR Linux YANG models&lt;/font&gt;" style="text;html=1;align=left;verticalAlign=middle;resizable=0;points=[];autosize=1;fontSize=12;fontFamily=Google Sans;fontStyle=0;fontColor=#001135;fontSource=https%3A%2F%2Ffonts.googleapis.com%2Fcss%3Ffamily%3DGoogle%2BSans;" parent="xg3VUZHEJCf5JJvFxYuz-1" vertex="1">
          <mxGeometry x="291" y="384" width="141" height="27" as="geometry" />
        </mxCell>
        <mxCell id="l5OnVXgXOkP5nOk7Ud_w-26" value="" style="shape=flexArrow;endArrow=classic;html=1;rounded=0;fontFamily=Google Sans;fontSize=12;fontColor=#FFFFFF;strokeColor=none;fillColor=#98A2AE;entryX=0.472;entryY=0.03;entryDx=0;entryDy=0;entryPerimeter=0;endWidth=12.338709677419356;endSize=3.4694444444444446;width=12.580645161290322;fontSource=https%3A%2F%2Ffonts.googleapis.com%2Fcss%3Ffamily%3DGoogle%2BSans;" parent="xg3VUZHEJCf5JJvFxYuz-1" edge="1">
          <mxGeometry width="50" height="50" relative="1" as="geometry">
            <mxPoint x="492" y="557" as="sourcePoint" />
            <mxPoint x="492.11199999999985" y="591.8100000000002" as="targetPoint" />
          </mxGeometry>
        </mxCell>
        <mxCell id="l5OnVXgXOkP5nOk7Ud_w-28" value="&lt;font style=&quot;font-size: 10px;&quot;&gt;pub&lt;/font&gt;" style="text;html=1;align=left;verticalAlign=middle;resizable=0;points=[];autosize=1;fontSize=10;fontFamily=Google Sans;fontStyle=0;fontColor=#FFFFFF;rotation=-90;fontSource=https%3A%2F%2Ffonts.googleapis.com%2Fcss%3Ffamily%3DGoogle%2BSans;" parent="xg3VUZHEJCf5JJvFxYuz-1" vertex="1">
          <mxGeometry x="474" y="552.44" width="37" height="25" as="geometry" />
        </mxCell>
        <mxCell id="l5OnVXgXOkP5nOk7Ud_w-30" value="" style="shape=flexArrow;endArrow=classic;html=1;rounded=0;fontFamily=Google Sans;fontSize=12;fontColor=#FFFFFF;strokeColor=none;fillColor=#98A2AE;entryX=0.525;entryY=1.006;entryDx=0;entryDy=0;entryPerimeter=0;endWidth=12.338709677419356;endSize=3.4694444444444446;width=12.580645161290322;exitX=0.581;exitY=0.012;exitDx=0;exitDy=0;exitPerimeter=0;fontSource=https%3A%2F%2Ffonts.googleapis.com%2Fcss%3Ffamily%3DGoogle%2BSans;" parent="xg3VUZHEJCf5JJvFxYuz-1" edge="1">
          <mxGeometry width="50" height="50" relative="1" as="geometry">
            <mxPoint x="532.5509999999999" y="591.288" as="sourcePoint" />
            <mxPoint x="532.2" y="556.614" as="targetPoint" />
          </mxGeometry>
        </mxCell>
        <mxCell id="l5OnVXgXOkP5nOk7Ud_w-32" value="sub" style="text;html=1;align=left;verticalAlign=middle;resizable=0;points=[];autosize=1;fontSize=10;fontFamily=Google Sans;fontStyle=0;fontColor=#FFFFFF;rotation=-90;fontSource=https%3A%2F%2Ffonts.googleapis.com%2Fcss%3Ffamily%3DGoogle%2BSans;" parent="xg3VUZHEJCf5JJvFxYuz-1" vertex="1">
          <mxGeometry x="515" y="559.44" width="35" height="25" as="geometry" />
        </mxCell>
        <mxCell id="l5OnVXgXOkP5nOk7Ud_w-36" value="" style="shape=flexArrow;endArrow=classic;startArrow=classic;html=1;rounded=0;fontFamily=Google Sans;fontSize=10;fontColor=#FFFFFF;fillColor=#98A2AE;exitX=0.5;exitY=0;exitDx=0;exitDy=0;endWidth=7.382550335570469;endSize=2.9096774193548387;startWidth=7.7852348993288585;startSize=3.3436241610738255;width=6.774193548387097;strokeColor=none;fontSource=https%3A%2F%2Ffonts.googleapis.com%2Fcss%3Ffamily%3DGoogle%2BSans;" parent="xg3VUZHEJCf5JJvFxYuz-1" source="l5OnVXgXOkP5nOk7Ud_w-5" edge="1">
          <mxGeometry width="100" height="100" relative="1" as="geometry">
            <mxPoint x="204" y="699" as="sourcePoint" />
            <mxPoint x="449" y="619" as="targetPoint" />
          </mxGeometry>
        </mxCell>
        <mxCell id="l5OnVXgXOkP5nOk7Ud_w-37" value="" style="shape=flexArrow;endArrow=classic;startArrow=classic;html=1;rounded=0;fontFamily=Google Sans;fontSize=10;fontColor=#FFFFFF;fillColor=#001135;exitX=0.184;exitY=-0.011;exitDx=0;exitDy=0;endWidth=7.382550335570469;endSize=2.9096774193548387;startWidth=7.7852348993288585;startSize=2.8543689320388346;width=12.815533980582524;exitPerimeter=0;fontSource=https%3A%2F%2Ffonts.googleapis.com%2Fcss%3Ffamily%3DGoogle%2BSans;" parent="xg3VUZHEJCf5JJvFxYuz-1" source="l5OnVXgXOkP5nOk7Ud_w-8" edge="1">
          <mxGeometry width="100" height="100" relative="1" as="geometry">
            <mxPoint x="441.25" y="521.5000000000001" as="sourcePoint" />
            <mxPoint x="440.7500000000001" y="485" as="targetPoint" />
          </mxGeometry>
        </mxCell>
        <mxCell id="l5OnVXgXOkP5nOk7Ud_w-38" value="&lt;font style=&quot;font-size: 9px;&quot;&gt;gRPC&lt;/font&gt;" style="text;html=1;align=left;verticalAlign=middle;resizable=0;points=[];autosize=1;fontSize=9;fontFamily=Google Sans;fontStyle=0;fontColor=#FFFFFF;rotation=-90;fontSource=https%3A%2F%2Ffonts.googleapis.com%2Fcss%3Ffamily%3DGoogle%2BSans;" parent="xg3VUZHEJCf5JJvFxYuz-1" vertex="1">
          <mxGeometry x="422" y="490" width="41" height="24" as="geometry" />
        </mxCell>
        <mxCell id="l5OnVXgXOkP5nOk7Ud_w-39" value="" style="shape=flexArrow;endArrow=classic;startArrow=classic;html=1;rounded=0;fontFamily=Google Sans;fontSize=10;fontColor=#FFFFFF;fillColor=#001135;exitX=0.41;exitY=0.007;exitDx=0;exitDy=0;endWidth=7.382550335570469;endSize=2.9096774193548387;startWidth=7.7852348993288585;startSize=3.1728155339805824;width=11.456310679611649;exitPerimeter=0;fontSource=https%3A%2F%2Ffonts.googleapis.com%2Fcss%3Ffamily%3DGoogle%2BSans;" parent="xg3VUZHEJCf5JJvFxYuz-1" edge="1">
          <mxGeometry width="100" height="100" relative="1" as="geometry">
            <mxPoint x="533.48" y="528.0029999999999" as="sourcePoint" />
            <mxPoint x="532.75" y="484.79999999999995" as="targetPoint" />
          </mxGeometry>
        </mxCell>
        <mxCell id="l5OnVXgXOkP5nOk7Ud_w-40" value="&lt;font style=&quot;font-size: 9px;&quot;&gt;gRPC&lt;/font&gt;" style="text;html=1;align=left;verticalAlign=middle;resizable=0;points=[];autosize=1;fontSize=9;fontFamily=Google Sans;fontStyle=0;fontColor=#FFFFFF;rotation=-90;fontSource=https%3A%2F%2Ffonts.googleapis.com%2Fcss%3Ffamily%3DGoogle%2BSans;" parent="xg3VUZHEJCf5JJvFxYuz-1" vertex="1">
          <mxGeometry x="513" y="488.79999999999995" width="41" height="24" as="geometry" />
        </mxCell>
        <mxCell id="l5OnVXgXOkP5nOk7Ud_w-42" value="" style="shape=flexArrow;endArrow=classic;startArrow=classic;html=1;rounded=0;fontFamily=Google Sans;fontSize=10;fontColor=#FFFFFF;fillColor=#98A2AE;exitX=0.121;exitY=0.034;exitDx=0;exitDy=0;endWidth=7.382550335570469;endSize=2.9096774193548387;startWidth=7.7852348993288585;startSize=2.8543689320388346;width=12.815533980582524;exitPerimeter=0;strokeColor=none;fontSource=https%3A%2F%2Ffonts.googleapis.com%2Fcss%3Ffamily%3DGoogle%2BSans;" parent="xg3VUZHEJCf5JJvFxYuz-1" source="l5OnVXgXOkP5nOk7Ud_w-9" edge="1">
          <mxGeometry width="100" height="100" relative="1" as="geometry">
            <mxPoint x="347.424" y="527.681" as="sourcePoint" />
            <mxPoint x="345.75" y="485" as="targetPoint" />
          </mxGeometry>
        </mxCell>
        <mxCell id="l5OnVXgXOkP5nOk7Ud_w-43" value="&lt;font style=&quot;font-size: 9px&quot;&gt;pub/sub&lt;/font&gt;" style="text;html=1;align=left;verticalAlign=middle;resizable=0;points=[];autosize=1;fontSize=9;fontFamily=Google Sans;fontStyle=0;fontColor=#FFFFFF;rotation=-90;fontSource=https%3A%2F%2Ffonts.googleapis.com%2Fcss%3Ffamily%3DGoogle%2BSans;" parent="xg3VUZHEJCf5JJvFxYuz-1" vertex="1">
          <mxGeometry x="320" y="523" width="52" height="24" as="geometry" />
        </mxCell>
      </root>
    </mxGraphModel>
  </diagram>
  <diagram name="[1] sdk_mgr" id="XgM3rPJFt2jxgsHihQ7d">
    <mxGraphModel dx="1257" dy="679" grid="1" gridSize="1" guides="1" tooltips="1" connect="1" arrows="1" fold="1" page="1" pageScale="1" pageWidth="827" pageHeight="1169" background="#495766" math="0" shadow="0">
      <root>
        <mxCell id="xc5a-p3yFIU_XZoQYOlz-0" />
        <mxCell id="xc5a-p3yFIU_XZoQYOlz-1" parent="xc5a-p3yFIU_XZoQYOlz-0" />
        <mxCell id="xc5a-p3yFIU_XZoQYOlz-35" value="&lt;font style=&quot;font-size: 16px&quot;&gt;IDB&lt;/font&gt;" style="ellipse;whiteSpace=wrap;html=1;aspect=fixed;fontFamily=Google Sans;fontSize=9;fontColor=#FFFFFF;strokeColor=none;fillColor=#98A2AE;align=center;fontSource=https%3A%2F%2Ffonts.googleapis.com%2Fcss%3Ffamily%3DGoogle%2BSans;" parent="xc5a-p3yFIU_XZoQYOlz-1" vertex="1">
          <mxGeometry x="367" y="324" width="80" height="80" as="geometry" />
        </mxCell>
        <mxCell id="xc5a-p3yFIU_XZoQYOlz-36" value="&lt;font style=&quot;font-size: 10px&quot;&gt;ndk&lt;br&gt;mgr&lt;/font&gt;" style="ellipse;whiteSpace=wrap;html=1;aspect=fixed;fontFamily=Google Sans;fontSize=10;fontColor=#FFFFFF;strokeColor=none;fillColor=#00C9FF;align=center;fontSource=https%3A%2F%2Ffonts.googleapis.com%2Fcss%3Ffamily%3DGoogle%2BSans;" parent="xc5a-p3yFIU_XZoQYOlz-1" vertex="1">
          <mxGeometry x="270" y="338" width="50" height="50" as="geometry" />
        </mxCell>
        <mxCell id="xc5a-p3yFIU_XZoQYOlz-37" value="&lt;font style=&quot;font-size: 10px&quot;&gt;bgp&lt;br&gt;mgr&lt;/font&gt;" style="ellipse;whiteSpace=wrap;html=1;aspect=fixed;fontFamily=Google Sans;fontSize=10;fontColor=#FFFFFF;strokeColor=none;fillColor=#001135;align=center;fontSource=https%3A%2F%2Ffonts.googleapis.com%2Fcss%3Ffamily%3DGoogle%2BSans;" parent="xc5a-p3yFIU_XZoQYOlz-1" vertex="1">
          <mxGeometry x="296" y="266" width="50" height="50" as="geometry" />
        </mxCell>
        <mxCell id="xc5a-p3yFIU_XZoQYOlz-39" value="&lt;font style=&quot;font-size: 10px&quot;&gt;lc&lt;br&gt;mgr&lt;/font&gt;" style="ellipse;whiteSpace=wrap;html=1;aspect=fixed;fontFamily=Google Sans;fontSize=10;fontColor=#FFFFFF;strokeColor=none;fillColor=#001135;align=center;fontSource=https%3A%2F%2Ffonts.googleapis.com%2Fcss%3Ffamily%3DGoogle%2BSans;" parent="xc5a-p3yFIU_XZoQYOlz-1" vertex="1">
          <mxGeometry x="354" y="233" width="50" height="50" as="geometry" />
        </mxCell>
        <mxCell id="xc5a-p3yFIU_XZoQYOlz-40" value="&lt;font style=&quot;font-size: 10px&quot;&gt;chassis&lt;br&gt;mgr&lt;/font&gt;" style="ellipse;whiteSpace=wrap;html=1;aspect=fixed;fontFamily=Google Sans;fontSize=10;fontColor=#FFFFFF;strokeColor=none;fillColor=#001135;align=center;fontSource=https%3A%2F%2Ffonts.googleapis.com%2Fcss%3Ffamily%3DGoogle%2BSans;" parent="xc5a-p3yFIU_XZoQYOlz-1" vertex="1">
          <mxGeometry x="423" y="233" width="50" height="50" as="geometry" />
        </mxCell>
        <mxCell id="xc5a-p3yFIU_XZoQYOlz-41" value="&lt;font style=&quot;font-size: 10px&quot;&gt;app&lt;br&gt;mgr&lt;/font&gt;" style="ellipse;whiteSpace=wrap;html=1;aspect=fixed;fontFamily=Google Sans;fontSize=10;fontColor=#FFFFFF;strokeColor=none;fillColor=#001135;align=center;fontSource=https%3A%2F%2Ffonts.googleapis.com%2Fcss%3Ffamily%3DGoogle%2BSans;" parent="xc5a-p3yFIU_XZoQYOlz-1" vertex="1">
          <mxGeometry x="475" y="281" width="50" height="50" as="geometry" />
        </mxCell>
        <mxCell id="xc5a-p3yFIU_XZoQYOlz-42" value="&lt;font style=&quot;font-size: 10px&quot;&gt;xdp&lt;br&gt;mgr&lt;/font&gt;" style="ellipse;whiteSpace=wrap;html=1;aspect=fixed;fontFamily=Google Sans;fontSize=10;fontColor=#FFFFFF;strokeColor=none;fillColor=#001135;align=center;fontSource=https%3A%2F%2Ffonts.googleapis.com%2Fcss%3Ffamily%3DGoogle%2BSans;" parent="xc5a-p3yFIU_XZoQYOlz-1" vertex="1">
          <mxGeometry x="291.5" y="408" width="50" height="50" as="geometry" />
        </mxCell>
        <mxCell id="xc5a-p3yFIU_XZoQYOlz-43" value="&lt;font style=&quot;font-size: 10px&quot;&gt;fib&lt;br&gt;mgr&lt;/font&gt;" style="ellipse;whiteSpace=wrap;html=1;aspect=fixed;fontFamily=Google Sans;fontSize=10;fontColor=#FFFFFF;strokeColor=none;fillColor=#001135;align=center;fontSource=https%3A%2F%2Ffonts.googleapis.com%2Fcss%3Ffamily%3DGoogle%2BSans;" parent="xc5a-p3yFIU_XZoQYOlz-1" vertex="1">
          <mxGeometry x="346" y="447" width="50" height="50" as="geometry" />
        </mxCell>
        <mxCell id="xc5a-p3yFIU_XZoQYOlz-44" value="&lt;font style=&quot;font-size: 10px&quot;&gt;lldp&lt;br&gt;mgr&lt;/font&gt;" style="ellipse;whiteSpace=wrap;html=1;aspect=fixed;fontFamily=Google Sans;fontSize=10;fontColor=#FFFFFF;strokeColor=none;fillColor=#001135;align=center;fontSource=https%3A%2F%2Ffonts.googleapis.com%2Fcss%3Ffamily%3DGoogle%2BSans;" parent="xc5a-p3yFIU_XZoQYOlz-1" vertex="1">
          <mxGeometry x="415" y="451" width="50" height="50" as="geometry" />
        </mxCell>
        <mxCell id="xc5a-p3yFIU_XZoQYOlz-45" value="&lt;font style=&quot;font-size: 10px&quot;&gt;mgmt&lt;br&gt;srv&lt;/font&gt;" style="ellipse;whiteSpace=wrap;html=1;aspect=fixed;fontFamily=Google Sans;fontSize=10;fontColor=#FFFFFF;strokeColor=none;fillColor=#001135;align=center;fontSource=https%3A%2F%2Ffonts.googleapis.com%2Fcss%3Ffamily%3DGoogle%2BSans;" parent="xc5a-p3yFIU_XZoQYOlz-1" vertex="1">
          <mxGeometry x="497" y="338" width="50" height="50" as="geometry" />
        </mxCell>
        <mxCell id="xc5a-p3yFIU_XZoQYOlz-46" value="&lt;font style=&quot;font-size: 10px&quot;&gt;aaa&lt;br&gt;mgr&lt;/font&gt;" style="ellipse;whiteSpace=wrap;html=1;aspect=fixed;fontFamily=Google Sans;fontSize=10;fontColor=#FFFFFF;strokeColor=none;fillColor=#001135;align=center;fontSource=https%3A%2F%2Ffonts.googleapis.com%2Fcss%3Ffamily%3DGoogle%2BSans;" parent="xc5a-p3yFIU_XZoQYOlz-1" vertex="1">
          <mxGeometry x="470" y="413" width="50" height="50" as="geometry" />
        </mxCell>
        <mxCell id="xc5a-p3yFIU_XZoQYOlz-47" value="" style="endArrow=blockThin;startArrow=blockThin;html=1;rounded=0;fontFamily=Google Sans;fontSize=10;fontColor=#FFFFFF;fillColor=#98A2AE;exitX=1;exitY=0.5;exitDx=0;exitDy=0;endFill=1;startFill=1;fontSource=https%3A%2F%2Ffonts.googleapis.com%2Fcss%3Ffamily%3DGoogle%2BSans;entryX=-0.006;entryY=0.5;entryDx=0;entryDy=0;entryPerimeter=0;" parent="xc5a-p3yFIU_XZoQYOlz-1" source="xc5a-p3yFIU_XZoQYOlz-36" target="xc5a-p3yFIU_XZoQYOlz-35" edge="1">
          <mxGeometry width="50" height="50" relative="1" as="geometry">
            <mxPoint x="227" y="402" as="sourcePoint" />
            <mxPoint x="365" y="364" as="targetPoint" />
          </mxGeometry>
        </mxCell>
        <mxCell id="xc5a-p3yFIU_XZoQYOlz-48" value="" style="endArrow=blockThin;startArrow=blockThin;html=1;rounded=0;fontFamily=Google Sans;fontSize=10;fontColor=#FFFFFF;fillColor=#98A2AE;entryX=0.14;entryY=0.143;entryDx=0;entryDy=0;exitX=1;exitY=1;exitDx=0;exitDy=0;endFill=1;startFill=1;fontSource=https%3A%2F%2Ffonts.googleapis.com%2Fcss%3Ffamily%3DGoogle%2BSans;entryPerimeter=0;" parent="xc5a-p3yFIU_XZoQYOlz-1" source="xc5a-p3yFIU_XZoQYOlz-37" target="xc5a-p3yFIU_XZoQYOlz-35" edge="1">
          <mxGeometry width="50" height="50" relative="1" as="geometry">
            <mxPoint x="321" y="364" as="sourcePoint" />
            <mxPoint x="367.9999999999983" y="365" as="targetPoint" />
          </mxGeometry>
        </mxCell>
        <mxCell id="xc5a-p3yFIU_XZoQYOlz-49" value="" style="endArrow=blockThin;startArrow=blockThin;html=1;rounded=0;fontFamily=Google Sans;fontSize=10;fontColor=#FFFFFF;fillColor=#98A2AE;exitX=0.5;exitY=1;exitDx=0;exitDy=0;endFill=1;startFill=1;fontSource=https%3A%2F%2Ffonts.googleapis.com%2Fcss%3Ffamily%3DGoogle%2BSans;entryX=0.342;entryY=0.02;entryDx=0;entryDy=0;entryPerimeter=0;" parent="xc5a-p3yFIU_XZoQYOlz-1" source="xc5a-p3yFIU_XZoQYOlz-39" target="xc5a-p3yFIU_XZoQYOlz-35" edge="1">
          <mxGeometry width="50" height="50" relative="1" as="geometry">
            <mxPoint x="339.6776695296604" y="309.67766952966053" as="sourcePoint" />
            <mxPoint x="395" y="325" as="targetPoint" />
          </mxGeometry>
        </mxCell>
        <mxCell id="xc5a-p3yFIU_XZoQYOlz-50" value="" style="endArrow=blockThin;startArrow=blockThin;html=1;rounded=0;fontFamily=Google Sans;fontSize=10;fontColor=#FFFFFF;fillColor=#98A2AE;entryX=0.71;entryY=0.039;entryDx=0;entryDy=0;exitX=0.364;exitY=0.962;exitDx=0;exitDy=0;endFill=1;startFill=1;entryPerimeter=0;exitPerimeter=0;fontSource=https%3A%2F%2Ffonts.googleapis.com%2Fcss%3Ffamily%3DGoogle%2BSans;" parent="xc5a-p3yFIU_XZoQYOlz-1" source="xc5a-p3yFIU_XZoQYOlz-40" target="xc5a-p3yFIU_XZoQYOlz-35" edge="1">
          <mxGeometry width="50" height="50" relative="1" as="geometry">
            <mxPoint x="380" y="284" as="sourcePoint" />
            <mxPoint x="396.48" y="327.79999999999995" as="targetPoint" />
          </mxGeometry>
        </mxCell>
        <mxCell id="xc5a-p3yFIU_XZoQYOlz-51" value="" style="endArrow=blockThin;startArrow=blockThin;html=1;rounded=0;fontFamily=Google Sans;fontSize=10;fontColor=#FFFFFF;fillColor=#98A2AE;entryX=0.915;entryY=0.202;entryDx=0;entryDy=0;endFill=1;startFill=1;entryPerimeter=0;fontSource=https%3A%2F%2Ffonts.googleapis.com%2Fcss%3Ffamily%3DGoogle%2BSans;" parent="xc5a-p3yFIU_XZoQYOlz-1" source="xc5a-p3yFIU_XZoQYOlz-41" target="xc5a-p3yFIU_XZoQYOlz-35" edge="1">
          <mxGeometry width="50" height="50" relative="1" as="geometry">
            <mxPoint x="442.20000000000005" y="282.10000000000014" as="sourcePoint" />
            <mxPoint x="424.56000000000006" y="326.8399999999999" as="targetPoint" />
          </mxGeometry>
        </mxCell>
        <mxCell id="xc5a-p3yFIU_XZoQYOlz-52" value="" style="endArrow=blockThin;startArrow=blockThin;html=1;rounded=0;fontFamily=Google Sans;fontSize=10;fontColor=#FFFFFF;fillColor=#98A2AE;endFill=1;startFill=1;exitX=0;exitY=0.5;exitDx=0;exitDy=0;fontSource=https%3A%2F%2Ffonts.googleapis.com%2Fcss%3Ffamily%3DGoogle%2BSans;entryX=1.006;entryY=0.5;entryDx=0;entryDy=0;entryPerimeter=0;" parent="xc5a-p3yFIU_XZoQYOlz-1" source="xc5a-p3yFIU_XZoQYOlz-45" target="xc5a-p3yFIU_XZoQYOlz-35" edge="1">
          <mxGeometry width="50" height="50" relative="1" as="geometry">
            <mxPoint x="479.26188864371215" y="319.34724725037154" as="sourcePoint" />
            <mxPoint x="448" y="364" as="targetPoint" />
          </mxGeometry>
        </mxCell>
        <mxCell id="xc5a-p3yFIU_XZoQYOlz-53" value="" style="endArrow=blockThin;startArrow=blockThin;html=1;rounded=0;fontFamily=Google Sans;fontSize=10;fontColor=#FFFFFF;fillColor=#98A2AE;entryX=0.91;entryY=0.797;entryDx=0;entryDy=0;endFill=1;startFill=1;exitX=0;exitY=0;exitDx=0;exitDy=0;entryPerimeter=0;fontSource=https%3A%2F%2Ffonts.googleapis.com%2Fcss%3Ffamily%3DGoogle%2BSans;" parent="xc5a-p3yFIU_XZoQYOlz-1" source="xc5a-p3yFIU_XZoQYOlz-46" target="xc5a-p3yFIU_XZoQYOlz-35" edge="1">
          <mxGeometry width="50" height="50" relative="1" as="geometry">
            <mxPoint x="498" y="364" as="sourcePoint" />
            <mxPoint x="448.0000000000018" y="365" as="targetPoint" />
          </mxGeometry>
        </mxCell>
        <mxCell id="xc5a-p3yFIU_XZoQYOlz-54" value="" style="endArrow=blockThin;startArrow=blockThin;html=1;rounded=0;fontFamily=Google Sans;fontSize=10;fontColor=#FFFFFF;fillColor=#98A2AE;entryX=0.695;entryY=0.97;entryDx=0;entryDy=0;endFill=1;startFill=1;exitX=0.5;exitY=0;exitDx=0;exitDy=0;entryPerimeter=0;fontSource=https%3A%2F%2Ffonts.googleapis.com%2Fcss%3Ffamily%3DGoogle%2BSans;" parent="xc5a-p3yFIU_XZoQYOlz-1" source="xc5a-p3yFIU_XZoQYOlz-44" target="xc5a-p3yFIU_XZoQYOlz-35" edge="1">
          <mxGeometry width="50" height="50" relative="1" as="geometry">
            <mxPoint x="478.3223304703363" y="421.3223304703363" as="sourcePoint" />
            <mxPoint x="440.79999999999995" y="388.76" as="targetPoint" />
          </mxGeometry>
        </mxCell>
        <mxCell id="xc5a-p3yFIU_XZoQYOlz-55" value="" style="endArrow=blockThin;startArrow=blockThin;html=1;rounded=0;fontFamily=Google Sans;fontSize=10;fontColor=#FFFFFF;fillColor=#98A2AE;endFill=1;startFill=1;exitX=0.6;exitY=0.04;exitDx=0;exitDy=0;exitPerimeter=0;fontSource=https%3A%2F%2Ffonts.googleapis.com%2Fcss%3Ffamily%3DGoogle%2BSans;entryX=0.353;entryY=0.981;entryDx=0;entryDy=0;entryPerimeter=0;" parent="xc5a-p3yFIU_XZoQYOlz-1" source="xc5a-p3yFIU_XZoQYOlz-43" target="xc5a-p3yFIU_XZoQYOlz-35" edge="1">
          <mxGeometry width="50" height="50" relative="1" as="geometry">
            <mxPoint x="441" y="452" as="sourcePoint" />
            <mxPoint x="395" y="403" as="targetPoint" />
          </mxGeometry>
        </mxCell>
        <mxCell id="xc5a-p3yFIU_XZoQYOlz-56" value="" style="endArrow=blockThin;startArrow=blockThin;html=1;rounded=0;fontFamily=Google Sans;fontSize=10;fontColor=#FFFFFF;fillColor=#98A2AE;entryX=0.106;entryY=0.827;entryDx=0;entryDy=0;endFill=1;startFill=1;exitX=1;exitY=0;exitDx=0;exitDy=0;entryPerimeter=0;fontSource=https%3A%2F%2Ffonts.googleapis.com%2Fcss%3Ffamily%3DGoogle%2BSans;" parent="xc5a-p3yFIU_XZoQYOlz-1" source="xc5a-p3yFIU_XZoQYOlz-42" target="xc5a-p3yFIU_XZoQYOlz-35" edge="1">
          <mxGeometry width="50" height="50" relative="1" as="geometry">
            <mxPoint x="377" y="450" as="sourcePoint" />
            <mxPoint x="396.48" y="402.5999999999999" as="targetPoint" />
          </mxGeometry>
        </mxCell>
        <mxCell id="xc5a-p3yFIU_XZoQYOlz-57" value="custom&lt;br&gt;app-1" style="rounded=0;whiteSpace=wrap;html=1;strokeColor=none;fillColor=#00C9FF;fontFamily=Google Sans;fontColor=#FFFFFF;fontSource=https%3A%2F%2Ffonts.googleapis.com%2Fcss%3Ffamily%3DGoogle%2BSans;" parent="xc5a-p3yFIU_XZoQYOlz-1" vertex="1">
          <mxGeometry x="167" y="380" width="53" height="34" as="geometry" />
        </mxCell>
        <mxCell id="xc5a-p3yFIU_XZoQYOlz-58" value="custom&lt;br&gt;app-2" style="rounded=0;whiteSpace=wrap;html=1;strokeColor=none;fillColor=#00C9FF;fontFamily=Google Sans;fontColor=#FFFFFF;fontSource=https%3A%2F%2Ffonts.googleapis.com%2Fcss%3Ffamily%3DGoogle%2BSans;" parent="xc5a-p3yFIU_XZoQYOlz-1" vertex="1">
          <mxGeometry x="167" y="323" width="53" height="34" as="geometry" />
        </mxCell>
        <mxCell id="xc5a-p3yFIU_XZoQYOlz-59" value="" style="endArrow=blockThin;startArrow=blockThin;html=1;rounded=0;fontFamily=Google Sans;fontSize=10;fontColor=#FFFFFF;fillColor=#98A2AE;exitX=1;exitY=0.5;exitDx=0;exitDy=0;endFill=1;startFill=1;strokeColor=#4BDD33;fontSource=https%3A%2F%2Ffonts.googleapis.com%2Fcss%3Ffamily%3DGoogle%2BSans;" parent="xc5a-p3yFIU_XZoQYOlz-1" source="xc5a-p3yFIU_XZoQYOlz-58" target="xc5a-p3yFIU_XZoQYOlz-36" edge="1">
          <mxGeometry width="50" height="50" relative="1" as="geometry">
            <mxPoint x="321" y="364" as="sourcePoint" />
            <mxPoint x="367.9999999999983" y="365" as="targetPoint" />
          </mxGeometry>
        </mxCell>
        <mxCell id="xc5a-p3yFIU_XZoQYOlz-60" value="" style="endArrow=blockThin;startArrow=blockThin;html=1;rounded=0;fontFamily=Google Sans;fontSize=10;fontColor=#FFFFFF;fillColor=#98A2AE;exitX=1;exitY=0.5;exitDx=0;exitDy=0;endFill=1;startFill=1;strokeColor=#4BDD33;entryX=0.081;entryY=0.776;entryDx=0;entryDy=0;entryPerimeter=0;fontSource=https%3A%2F%2Ffonts.googleapis.com%2Fcss%3Ffamily%3DGoogle%2BSans;" parent="xc5a-p3yFIU_XZoQYOlz-1" source="xc5a-p3yFIU_XZoQYOlz-57" target="xc5a-p3yFIU_XZoQYOlz-36" edge="1">
          <mxGeometry width="50" height="50" relative="1" as="geometry">
            <mxPoint x="221" y="340.9999999999998" as="sourcePoint" />
            <mxPoint x="272.09239315051946" y="356.69066796958555" as="targetPoint" />
          </mxGeometry>
        </mxCell>
        <mxCell id="xc5a-p3yFIU_XZoQYOlz-61" value="gNMI" style="rounded=0;whiteSpace=wrap;html=1;strokeColor=none;fillColor=#124191;fontFamily=Google Sans;fontColor=#FFFFFF;fontSource=https%3A%2F%2Ffonts.googleapis.com%2Fcss%3Ffamily%3DGoogle%2BSans;" parent="xc5a-p3yFIU_XZoQYOlz-1" vertex="1">
          <mxGeometry x="590" y="347" width="53" height="34" as="geometry" />
        </mxCell>
        <mxCell id="xc5a-p3yFIU_XZoQYOlz-62" value="CLI" style="rounded=0;whiteSpace=wrap;html=1;strokeColor=none;fillColor=#124191;fontFamily=Google Sans;fontColor=#FFFFFF;fontSource=https%3A%2F%2Ffonts.googleapis.com%2Fcss%3Ffamily%3DGoogle%2BSans;" parent="xc5a-p3yFIU_XZoQYOlz-1" vertex="1">
          <mxGeometry x="590" y="303" width="53" height="34" as="geometry" />
        </mxCell>
        <mxCell id="xc5a-p3yFIU_XZoQYOlz-63" value="JSON-RPC" style="rounded=0;whiteSpace=wrap;html=1;strokeColor=none;fillColor=#124191;fontFamily=Google Sans;fontColor=#FFFFFF;fontSource=https%3A%2F%2Ffonts.googleapis.com%2Fcss%3Ffamily%3DGoogle%2BSans;" parent="xc5a-p3yFIU_XZoQYOlz-1" vertex="1">
          <mxGeometry x="590" y="391" width="53" height="34" as="geometry" />
        </mxCell>
        <mxCell id="xc5a-p3yFIU_XZoQYOlz-64" value="" style="endArrow=blockThin;startArrow=blockThin;html=1;rounded=0;fontFamily=Google Sans;fontSize=10;fontColor=#FFFFFF;fillColor=#98A2AE;exitX=0.861;exitY=0.144;exitDx=0;exitDy=0;endFill=1;startFill=1;strokeColor=#4BDD33;entryX=0;entryY=0.5;entryDx=0;entryDy=0;fontSource=https%3A%2F%2Ffonts.googleapis.com%2Fcss%3Ffamily%3DGoogle%2BSans;exitPerimeter=0;" parent="xc5a-p3yFIU_XZoQYOlz-1" source="xc5a-p3yFIU_XZoQYOlz-45" target="xc5a-p3yFIU_XZoQYOlz-62" edge="1">
          <mxGeometry width="50" height="50" relative="1" as="geometry">
            <mxPoint x="220.9999999999999" y="341" as="sourcePoint" />
            <mxPoint x="272.0543428694748" y="356.81630286084237" as="targetPoint" />
          </mxGeometry>
        </mxCell>
        <mxCell id="xc5a-p3yFIU_XZoQYOlz-65" value="" style="endArrow=blockThin;startArrow=blockThin;html=1;rounded=0;fontFamily=Google Sans;fontSize=10;fontColor=#FFFFFF;fillColor=#98A2AE;endFill=1;startFill=1;strokeColor=#4BDD33;entryX=0;entryY=0.5;entryDx=0;entryDy=0;fontSource=https%3A%2F%2Ffonts.googleapis.com%2Fcss%3Ffamily%3DGoogle%2BSans;exitX=1.01;exitY=0.501;exitDx=0;exitDy=0;exitPerimeter=0;" parent="xc5a-p3yFIU_XZoQYOlz-1" source="xc5a-p3yFIU_XZoQYOlz-45" target="xc5a-p3yFIU_XZoQYOlz-61" edge="1">
          <mxGeometry width="50" height="50" relative="1" as="geometry">
            <mxPoint x="548" y="363" as="sourcePoint" />
            <mxPoint x="591" y="321" as="targetPoint" />
          </mxGeometry>
        </mxCell>
        <mxCell id="xc5a-p3yFIU_XZoQYOlz-66" value="" style="endArrow=blockThin;startArrow=blockThin;html=1;rounded=0;fontFamily=Google Sans;fontSize=10;fontColor=#FFFFFF;fillColor=#98A2AE;exitX=0.861;exitY=0.855;exitDx=0;exitDy=0;endFill=1;startFill=1;strokeColor=#4BDD33;entryX=0;entryY=0.5;entryDx=0;entryDy=0;fontSource=https%3A%2F%2Ffonts.googleapis.com%2Fcss%3Ffamily%3DGoogle%2BSans;exitPerimeter=0;" parent="xc5a-p3yFIU_XZoQYOlz-1" source="xc5a-p3yFIU_XZoQYOlz-45" target="xc5a-p3yFIU_XZoQYOlz-63" edge="1">
          <mxGeometry width="50" height="50" relative="1" as="geometry">
            <mxPoint x="548" y="364" as="sourcePoint" />
            <mxPoint x="591" y="365" as="targetPoint" />
          </mxGeometry>
        </mxCell>
        <mxCell id="xc5a-p3yFIU_XZoQYOlz-67" value="" style="endArrow=blockThin;startArrow=blockThin;html=1;rounded=0;fontFamily=Google Sans;fontSize=10;fontColor=#FFFFFF;fillColor=#98A2AE;endFill=1;startFill=1;strokeColor=#4BDD33;fontSource=https%3A%2F%2Ffonts.googleapis.com%2Fcss%3Ffamily%3DGoogle%2BSans;" parent="xc5a-p3yFIU_XZoQYOlz-1" edge="1">
          <mxGeometry width="50" height="50" relative="1" as="geometry">
            <mxPoint x="181" y="498" as="sourcePoint" />
            <mxPoint x="223" y="498" as="targetPoint" />
          </mxGeometry>
        </mxCell>
        <mxCell id="_maKBNzuVAnapH27AzpF-0" value="&lt;font&gt;gRPC&lt;/font&gt;" style="text;html=1;align=left;verticalAlign=middle;resizable=0;points=[];autosize=1;fontSize=14;fontFamily=Google Sans;fontStyle=0;fontColor=#FFFFFF;fontSource=https%3A%2F%2Ffonts.googleapis.com%2Fcss%3Ffamily%3DGoogle%2BSans;" parent="xc5a-p3yFIU_XZoQYOlz-1" vertex="1">
          <mxGeometry x="229" y="482" width="54" height="30" as="geometry" />
        </mxCell>
        <mxCell id="_maKBNzuVAnapH27AzpF-1" value="" style="endArrow=blockThin;startArrow=blockThin;html=1;rounded=0;fontFamily=Google Sans;fontSize=10;fontColor=#FFFFFF;fillColor=#98A2AE;endFill=1;startFill=1;strokeColor=#001135;fontSource=https%3A%2F%2Ffonts.googleapis.com%2Fcss%3Ffamily%3DGoogle%2BSans;" parent="xc5a-p3yFIU_XZoQYOlz-1" edge="1">
          <mxGeometry width="50" height="50" relative="1" as="geometry">
            <mxPoint x="181" y="522" as="sourcePoint" />
            <mxPoint x="223" y="522" as="targetPoint" />
          </mxGeometry>
        </mxCell>
        <mxCell id="_maKBNzuVAnapH27AzpF-2" value="&lt;font&gt;Pub/Sub&lt;/font&gt;" style="text;html=1;align=left;verticalAlign=middle;resizable=0;points=[];autosize=1;fontSize=14;fontFamily=Google Sans;fontStyle=0;fontColor=#FFFFFF;fontSource=https%3A%2F%2Ffonts.googleapis.com%2Fcss%3Ffamily%3DGoogle%2BSans;" parent="xc5a-p3yFIU_XZoQYOlz-1" vertex="1">
          <mxGeometry x="229" y="506" width="71" height="30" as="geometry" />
        </mxCell>
      </root>
    </mxGraphModel>
  </diagram>
  <diagram name="[2] grpc" id="jszRfg2fhWZYMWAeCCky">
    <mxGraphModel dx="902" dy="487" grid="1" gridSize="1" guides="1" tooltips="1" connect="1" arrows="1" fold="1" page="1" pageScale="1" pageWidth="827" pageHeight="1169" background="#495766" math="0" shadow="0">
      <root>
        <mxCell id="kWkWUY6aXbe_XbLZN10U-0" />
        <mxCell id="kWkWUY6aXbe_XbLZN10U-1" parent="kWkWUY6aXbe_XbLZN10U-0" />
        <mxCell id="kWkWUY6aXbe_XbLZN10U-21" value="" style="endArrow=blockThin;startArrow=none;html=1;rounded=0;fontFamily=Google Sans;fontSize=10;fontColor=#FFFFFF;fillColor=#98A2AE;entryX=-0.001;entryY=0.838;entryDx=0;entryDy=0;endFill=1;startFill=0;entryPerimeter=0;strokeColor=#FFFFFF;strokeWidth=2;fontSource=https%3A%2F%2Ffonts.googleapis.com%2Fcss%3Ffamily%3DGoogle%2BSans;" parent="kWkWUY6aXbe_XbLZN10U-1" target="UYcD5StHnQ1EIm3wCGzf-0" edge="1">
          <mxGeometry width="50" height="50" relative="1" as="geometry">
            <mxPoint x="223" y="446" as="sourcePoint" />
            <mxPoint x="423.6" y="13.599999999999909" as="targetPoint" />
            <Array as="points">
              <mxPoint x="223" y="331" />
            </Array>
          </mxGeometry>
        </mxCell>
        <mxCell id="UYcD5StHnQ1EIm3wCGzf-0" value="" style="rounded=0;whiteSpace=wrap;html=1;strokeColor=none;fillColor=#98A2AE;fontFamily=Google Sans;fontColor=#FFFFFF;fontSource=https%3A%2F%2Ffonts.googleapis.com%2Fcss%3Ffamily%3DGoogle%2BSans;" parent="kWkWUY6aXbe_XbLZN10U-1" vertex="1">
          <mxGeometry x="287" y="228" width="171" height="123" as="geometry" />
        </mxCell>
        <mxCell id="8gId4k6R_X39nFlz1YmW-0" value="" style="rounded=0;whiteSpace=wrap;html=1;strokeColor=none;fillColor=#EDF3F5;fontFamily=Google Sans;fontSource=https%3A%2F%2Ffonts.googleapis.com%2Fcss%3Ffamily%3DGoogle%2BSans;" parent="kWkWUY6aXbe_XbLZN10U-1" vertex="1">
          <mxGeometry x="311" y="239" width="131" height="60" as="geometry" />
        </mxCell>
        <mxCell id="f-QZQLtoyRHu9hb87YX_-0" value="&lt;font&gt;gRPC Server&lt;/font&gt;" style="text;html=1;align=left;verticalAlign=middle;resizable=0;points=[];autosize=1;fontSize=14;fontFamily=Google Sans;fontStyle=0;fontColor=#001135;fontSource=https%3A%2F%2Ffonts.googleapis.com%2Fcss%3Ffamily%3DGoogle%2BSans;" parent="kWkWUY6aXbe_XbLZN10U-1" vertex="1">
          <mxGeometry x="333" y="257" width="98" height="30" as="geometry" />
        </mxCell>
        <mxCell id="f-QZQLtoyRHu9hb87YX_-1" value="&lt;font&gt;C++ Server&lt;/font&gt;" style="text;html=1;align=left;verticalAlign=middle;resizable=0;points=[];autosize=1;fontSize=14;fontFamily=Google Sans;fontStyle=0;fontColor=#001135;fontSource=https%3A%2F%2Ffonts.googleapis.com%2Fcss%3Ffamily%3DGoogle%2BSans;" parent="kWkWUY6aXbe_XbLZN10U-1" vertex="1">
          <mxGeometry x="337" y="314" width="89" height="30" as="geometry" />
        </mxCell>
        <mxCell id="f-QZQLtoyRHu9hb87YX_-2" value="" style="rounded=0;whiteSpace=wrap;html=1;strokeColor=none;fillColor=#98A2AE;fontFamily=Google Sans;fontColor=#FFFFFF;fontSource=https%3A%2F%2Ffonts.googleapis.com%2Fcss%3Ffamily%3DGoogle%2BSans;" parent="kWkWUY6aXbe_XbLZN10U-1" vertex="1">
          <mxGeometry x="141" y="447" width="171" height="123" as="geometry" />
        </mxCell>
        <mxCell id="f-QZQLtoyRHu9hb87YX_-3" value="" style="rounded=0;whiteSpace=wrap;html=1;strokeColor=none;fillColor=#EDF3F5;fontFamily=Google Sans;fontSource=https%3A%2F%2Ffonts.googleapis.com%2Fcss%3Ffamily%3DGoogle%2BSans;" parent="kWkWUY6aXbe_XbLZN10U-1" vertex="1">
          <mxGeometry x="165" y="458" width="131" height="60" as="geometry" />
        </mxCell>
        <mxCell id="f-QZQLtoyRHu9hb87YX_-4" value="&lt;font&gt;gRPC Client&lt;/font&gt;" style="text;html=1;align=left;verticalAlign=middle;resizable=0;points=[];autosize=1;fontSize=14;fontFamily=Google Sans;fontStyle=0;fontColor=#001135;fontSource=https%3A%2F%2Ffonts.googleapis.com%2Fcss%3Ffamily%3DGoogle%2BSans;" parent="kWkWUY6aXbe_XbLZN10U-1" vertex="1">
          <mxGeometry x="187" y="476" width="94" height="30" as="geometry" />
        </mxCell>
        <mxCell id="f-QZQLtoyRHu9hb87YX_-5" value="&lt;font&gt;Python client&lt;/font&gt;" style="text;html=1;align=left;verticalAlign=middle;resizable=0;points=[];autosize=1;fontSize=14;fontFamily=Google Sans;fontStyle=0;fontColor=#001135;fontSource=https%3A%2F%2Ffonts.googleapis.com%2Fcss%3Ffamily%3DGoogle%2BSans;" parent="kWkWUY6aXbe_XbLZN10U-1" vertex="1">
          <mxGeometry x="181" y="534" width="101" height="30" as="geometry" />
        </mxCell>
        <mxCell id="f-QZQLtoyRHu9hb87YX_-6" value="" style="rounded=0;whiteSpace=wrap;html=1;strokeColor=none;fillColor=#98A2AE;fontFamily=Google Sans;fontColor=#FFFFFF;fontSource=https%3A%2F%2Ffonts.googleapis.com%2Fcss%3Ffamily%3DGoogle%2BSans;" parent="kWkWUY6aXbe_XbLZN10U-1" vertex="1">
          <mxGeometry x="429" y="441" width="171" height="123" as="geometry" />
        </mxCell>
        <mxCell id="f-QZQLtoyRHu9hb87YX_-7" value="" style="rounded=0;whiteSpace=wrap;html=1;strokeColor=none;fillColor=#EDF3F5;fontFamily=Google Sans;fontSource=https%3A%2F%2Ffonts.googleapis.com%2Fcss%3Ffamily%3DGoogle%2BSans;" parent="kWkWUY6aXbe_XbLZN10U-1" vertex="1">
          <mxGeometry x="453" y="452" width="131" height="60" as="geometry" />
        </mxCell>
        <mxCell id="f-QZQLtoyRHu9hb87YX_-8" value="&lt;font&gt;gRPC Client&lt;/font&gt;" style="text;html=1;align=left;verticalAlign=middle;resizable=0;points=[];autosize=1;fontSize=14;fontFamily=Google Sans;fontStyle=0;fontColor=#001135;fontSource=https%3A%2F%2Ffonts.googleapis.com%2Fcss%3Ffamily%3DGoogle%2BSans;" parent="kWkWUY6aXbe_XbLZN10U-1" vertex="1">
          <mxGeometry x="475" y="470" width="94" height="30" as="geometry" />
        </mxCell>
        <mxCell id="f-QZQLtoyRHu9hb87YX_-9" value="&lt;font&gt;Go client&lt;/font&gt;" style="text;html=1;align=left;verticalAlign=middle;resizable=0;points=[];autosize=1;fontSize=14;fontFamily=Google Sans;fontStyle=0;fontColor=#001135;fontSource=https%3A%2F%2Ffonts.googleapis.com%2Fcss%3Ffamily%3DGoogle%2BSans;" parent="kWkWUY6aXbe_XbLZN10U-1" vertex="1">
          <mxGeometry x="487" y="530" width="76" height="30" as="geometry" />
        </mxCell>
        <mxCell id="f-QZQLtoyRHu9hb87YX_-10" value="" style="endArrow=none;startArrow=blockThin;html=1;rounded=0;fontFamily=Google Sans;fontSize=10;fontColor=#FFFFFF;fillColor=#98A2AE;entryX=0.158;entryY=0.993;entryDx=0;entryDy=0;endFill=0;startFill=1;entryPerimeter=0;exitX=0.813;exitY=-0.002;exitDx=0;exitDy=0;exitPerimeter=0;strokeColor=#FFFFFF;strokeWidth=2;fontSource=https%3A%2F%2Ffonts.googleapis.com%2Fcss%3Ffamily%3DGoogle%2BSans;" parent="kWkWUY6aXbe_XbLZN10U-1" source="f-QZQLtoyRHu9hb87YX_-2" target="UYcD5StHnQ1EIm3wCGzf-0" edge="1">
          <mxGeometry width="50" height="50" relative="1" as="geometry">
            <mxPoint x="224" y="447" as="sourcePoint" />
            <mxPoint x="287.82899999999995" y="332.07400000000007" as="targetPoint" />
            <Array as="points">
              <mxPoint x="280" y="419" />
              <mxPoint x="314" y="419" />
            </Array>
          </mxGeometry>
        </mxCell>
        <mxCell id="f-QZQLtoyRHu9hb87YX_-11" value="Request" style="text;html=1;align=left;verticalAlign=middle;resizable=0;points=[];autosize=1;fontSize=14;fontFamily=Google Sans;fontStyle=0;fontColor=#FFFFFF;rotation=-90;fontSource=https%3A%2F%2Ffonts.googleapis.com%2Fcss%3Ffamily%3DGoogle%2BSans;" parent="kWkWUY6aXbe_XbLZN10U-1" vertex="1">
          <mxGeometry x="174" y="367" width="71" height="30" as="geometry" />
        </mxCell>
        <mxCell id="f-QZQLtoyRHu9hb87YX_-12" value="&lt;font&gt;Response&lt;/font&gt;" style="text;html=1;align=left;verticalAlign=middle;resizable=0;points=[];autosize=1;fontSize=14;fontFamily=Google Sans;fontStyle=0;fontColor=#FFFFFF;rotation=-90;fontSource=https%3A%2F%2Ffonts.googleapis.com%2Fcss%3Ffamily%3DGoogle%2BSans;" parent="kWkWUY6aXbe_XbLZN10U-1" vertex="1">
          <mxGeometry x="283" y="367" width="81" height="30" as="geometry" />
        </mxCell>
        <mxCell id="f-QZQLtoyRHu9hb87YX_-13" value="" style="endArrow=blockThin;startArrow=none;html=1;rounded=0;fontFamily=Google Sans;fontSize=10;fontColor=#FFFFFF;fillColor=#98A2AE;entryX=0.994;entryY=0.849;entryDx=0;entryDy=0;endFill=1;startFill=0;entryPerimeter=0;strokeColor=#FFFFFF;strokeWidth=2;fontSource=https%3A%2F%2Ffonts.googleapis.com%2Fcss%3Ffamily%3DGoogle%2BSans;" parent="kWkWUY6aXbe_XbLZN10U-1" target="UYcD5StHnQ1EIm3wCGzf-0" edge="1">
          <mxGeometry width="50" height="50" relative="1" as="geometry">
            <mxPoint x="505" y="440" as="sourcePoint" />
            <mxPoint x="287.82900000000006" y="332.07400000000007" as="targetPoint" />
            <Array as="points">
              <mxPoint x="504" y="332" />
            </Array>
          </mxGeometry>
        </mxCell>
        <mxCell id="f-QZQLtoyRHu9hb87YX_-14" value="" style="endArrow=none;startArrow=blockThin;html=1;rounded=0;fontFamily=Google Sans;fontSize=10;fontColor=#FFFFFF;fillColor=#98A2AE;entryX=0.75;entryY=1;entryDx=0;entryDy=0;endFill=0;startFill=1;exitX=0.133;exitY=0;exitDx=0;exitDy=0;exitPerimeter=0;strokeColor=#FFFFFF;strokeWidth=2;fontSource=https%3A%2F%2Ffonts.googleapis.com%2Fcss%3Ffamily%3DGoogle%2BSans;" parent="kWkWUY6aXbe_XbLZN10U-1" source="f-QZQLtoyRHu9hb87YX_-6" target="UYcD5StHnQ1EIm3wCGzf-0" edge="1">
          <mxGeometry width="50" height="50" relative="1" as="geometry">
            <mxPoint x="281.023" y="447.75400000000013" as="sourcePoint" />
            <mxPoint x="315.0179999999999" y="351.1389999999999" as="targetPoint" />
            <Array as="points">
              <mxPoint x="452" y="417" />
              <mxPoint x="416" y="417" />
            </Array>
          </mxGeometry>
        </mxCell>
        <mxCell id="f-QZQLtoyRHu9hb87YX_-15" value="Request" style="text;html=1;align=left;verticalAlign=middle;resizable=0;points=[];autosize=1;fontSize=14;fontFamily=Google Sans;fontStyle=0;fontColor=#FFFFFF;rotation=-90;fontSource=https%3A%2F%2Ffonts.googleapis.com%2Fcss%3Ffamily%3DGoogle%2BSans;" parent="kWkWUY6aXbe_XbLZN10U-1" vertex="1">
          <mxGeometry x="456" y="367" width="71" height="30" as="geometry" />
        </mxCell>
        <mxCell id="f-QZQLtoyRHu9hb87YX_-16" value="&lt;font&gt;Response&lt;/font&gt;" style="text;html=1;align=left;verticalAlign=middle;resizable=0;points=[];autosize=1;fontSize=14;fontFamily=Google Sans;fontStyle=0;fontColor=#FFFFFF;rotation=-90;fontSource=https%3A%2F%2Ffonts.googleapis.com%2Fcss%3Ffamily%3DGoogle%2BSans;" parent="kWkWUY6aXbe_XbLZN10U-1" vertex="1">
          <mxGeometry x="363" y="367" width="81" height="30" as="geometry" />
        </mxCell>
      </root>
    </mxGraphModel>
  </diagram>
  <diagram name="[3] ndk operations" id="1u6snehuieDdXCv78SK4">
    <mxGraphModel dx="1092" dy="590" grid="0" gridSize="1" guides="1" tooltips="1" connect="1" arrows="1" fold="1" page="1" pageScale="1" pageWidth="827" pageHeight="1169" background="#495766" math="0" shadow="0">
      <root>
        <mxCell id="rpC4eVHN4_A3vbLjmgdy-0" />
        <mxCell id="rpC4eVHN4_A3vbLjmgdy-1" parent="rpC4eVHN4_A3vbLjmgdy-0" />
        <mxCell id="rpC4eVHN4_A3vbLjmgdy-8" value="" style="rounded=0;whiteSpace=wrap;html=1;strokeColor=none;fillColor=#EDF3F5;fontFamily=Google Sans;fontSource=https%3A%2F%2Ffonts.googleapis.com%2Fcss%3Ffamily%3DGoogle%2BSans;" parent="rpC4eVHN4_A3vbLjmgdy-1" vertex="1">
          <mxGeometry x="259" y="670" width="268" height="106" as="geometry" />
        </mxCell>
        <mxCell id="rpC4eVHN4_A3vbLjmgdy-16" value="NDK&lt;br&gt;Mgr Client&lt;sup&gt;&lt;font color=&quot;#98a2ae&quot;&gt;1&lt;/font&gt;&lt;/sup&gt;" style="text;html=1;align=center;verticalAlign=middle;resizable=0;points=[];autosize=1;fontSize=14;fontFamily=Google Sans;fontStyle=0;fontColor=#FFFFFF;rotation=0;fontSource=https%3A%2F%2Ffonts.googleapis.com%2Fcss%3Ffamily%3DGoogle%2BSans;" parent="rpC4eVHN4_A3vbLjmgdy-1" vertex="1">
          <mxGeometry x="132" y="304" width="88" height="49" as="geometry" />
        </mxCell>
        <mxCell id="rpC4eVHN4_A3vbLjmgdy-22" value="" style="endArrow=none;dashed=1;html=1;rounded=0;strokeColor=#EDF3F5;" parent="rpC4eVHN4_A3vbLjmgdy-1" edge="1">
          <mxGeometry width="50" height="50" relative="1" as="geometry">
            <mxPoint x="177" y="651" as="sourcePoint" />
            <mxPoint x="176" y="352" as="targetPoint" />
          </mxGeometry>
        </mxCell>
        <mxCell id="rpC4eVHN4_A3vbLjmgdy-23" value="&lt;font&gt;Sdk&lt;br&gt;Manager&lt;br&gt;Service&lt;/font&gt;" style="text;html=1;align=center;verticalAlign=middle;resizable=0;points=[];autosize=1;fontSize=14;fontFamily=Google Sans;fontStyle=0;fontColor=#FFFFFF;rotation=0;fontSource=https%3A%2F%2Ffonts.googleapis.com%2Fcss%3Ffamily%3DGoogle%2BSans;" parent="rpC4eVHN4_A3vbLjmgdy-1" vertex="1">
          <mxGeometry x="303" y="297" width="75" height="63" as="geometry" />
        </mxCell>
        <mxCell id="rpC4eVHN4_A3vbLjmgdy-24" value="" style="endArrow=none;dashed=1;html=1;rounded=0;strokeColor=#EDF3F5;" parent="rpC4eVHN4_A3vbLjmgdy-1" edge="1">
          <mxGeometry width="50" height="50" relative="1" as="geometry">
            <mxPoint x="341" y="646" as="sourcePoint" />
            <mxPoint x="341.0000000000001" y="352" as="targetPoint" />
          </mxGeometry>
        </mxCell>
        <mxCell id="rpC4eVHN4_A3vbLjmgdy-25" value="" style="endArrow=classic;html=1;rounded=0;strokeColor=#FFFFFF;startArrow=oval;startFill=1;endSize=3;startSize=3;exitX=1;exitY=0.5;exitDx=0;exitDy=0;" parent="rpC4eVHN4_A3vbLjmgdy-1" edge="1" source="qQ9aUEZbL9tuMAHDbus5-0">
          <mxGeometry width="50" height="50" relative="1" as="geometry">
            <mxPoint x="176" y="384" as="sourcePoint" />
            <mxPoint x="341" y="384" as="targetPoint" />
          </mxGeometry>
        </mxCell>
        <mxCell id="rpC4eVHN4_A3vbLjmgdy-26" value="&lt;font style=&quot;font-size: 8px;&quot;&gt;AgentRegister&lt;/font&gt;" style="text;html=1;align=center;verticalAlign=middle;resizable=0;points=[];autosize=1;fontSize=8;fontFamily=Fira Code;fontStyle=0;fontColor=#FFFFFF;rotation=0;fontSource=https%3A%2F%2Ffonts.googleapis.com%2Fcss%3Ffamily%3DFira%2BCode;" parent="rpC4eVHN4_A3vbLjmgdy-1" vertex="1">
          <mxGeometry x="220" y="370" width="73" height="15" as="geometry" />
        </mxCell>
        <mxCell id="rpC4eVHN4_A3vbLjmgdy-27" value="" style="endArrow=classic;html=1;rounded=0;strokeColor=#FFFFFF;startArrow=oval;startFill=1;endSize=3;startSize=3;" parent="rpC4eVHN4_A3vbLjmgdy-1" edge="1" source="qQ9aUEZbL9tuMAHDbus5-2">
          <mxGeometry width="50" height="50" relative="1" as="geometry">
            <mxPoint x="176" y="412" as="sourcePoint" />
            <mxPoint x="341" y="412" as="targetPoint" />
          </mxGeometry>
        </mxCell>
        <mxCell id="rpC4eVHN4_A3vbLjmgdy-28" value="&lt;font style=&quot;font-size: 8px;&quot;&gt;NotificationRegister&lt;br style=&quot;font-size: 8px;&quot;&gt;Op: Create&lt;br style=&quot;font-size: 8px;&quot;&gt;&lt;/font&gt;" style="text;html=1;align=center;verticalAlign=middle;resizable=0;points=[];autosize=1;fontSize=8;fontFamily=Fira Code;fontStyle=0;fontColor=#FFFFFF;rotation=0;fontSource=https%3A%2F%2Ffonts.googleapis.com%2Fcss%3Ffamily%3DFira%2BCode;" parent="rpC4eVHN4_A3vbLjmgdy-1" vertex="1">
          <mxGeometry x="204" y="398" width="107" height="25" as="geometry" />
        </mxCell>
        <mxCell id="rpC4eVHN4_A3vbLjmgdy-29" value="" style="endArrow=oval;html=1;rounded=0;strokeColor=#FFFFFF;startArrow=classic;startFill=1;endSize=3;startSize=3;endFill=1;" parent="rpC4eVHN4_A3vbLjmgdy-1" edge="1" source="qQ9aUEZbL9tuMAHDbus5-4">
          <mxGeometry width="50" height="50" relative="1" as="geometry">
            <mxPoint x="176" y="439" as="sourcePoint" />
            <mxPoint x="341" y="439" as="targetPoint" />
          </mxGeometry>
        </mxCell>
        <mxCell id="rpC4eVHN4_A3vbLjmgdy-30" value="&lt;font style=&quot;font-size: 8px&quot;&gt;NotificationRegisterResponse&lt;br style=&quot;font-size: 8px&quot;&gt;stream_id: &amp;lt;stream1&amp;gt;&lt;br style=&quot;font-size: 8px&quot;&gt;&lt;/font&gt;" style="text;html=1;align=center;verticalAlign=middle;resizable=0;points=[];autosize=1;fontSize=8;fontFamily=Fira Code;fontStyle=0;fontColor=#FFFFFF;rotation=0;fontSource=https%3A%2F%2Ffonts.googleapis.com%2Fcss%3Ffamily%3DFira%2BCode;" parent="rpC4eVHN4_A3vbLjmgdy-1" vertex="1">
          <mxGeometry x="185" y="425" width="145" height="25" as="geometry" />
        </mxCell>
        <mxCell id="rpC4eVHN4_A3vbLjmgdy-31" value="" style="endArrow=classic;html=1;rounded=0;strokeColor=#FFFFFF;startArrow=oval;startFill=1;endSize=3;startSize=3;" parent="rpC4eVHN4_A3vbLjmgdy-1" edge="1" source="qQ9aUEZbL9tuMAHDbus5-6">
          <mxGeometry width="50" height="50" relative="1" as="geometry">
            <mxPoint x="176" y="473" as="sourcePoint" />
            <mxPoint x="341" y="473" as="targetPoint" />
          </mxGeometry>
        </mxCell>
        <mxCell id="rpC4eVHN4_A3vbLjmgdy-32" value="&lt;font style=&quot;font-size: 8px&quot;&gt;NotificationRegister&lt;br style=&quot;font-size: 8px&quot;&gt;Op: AddSubscription&lt;br style=&quot;font-size: 8px&quot;&gt;ConfigSubscriptionRequest&lt;sup&gt;&lt;font color=&quot;#98a2ae&quot;&gt;3&lt;/font&gt;&lt;br&gt;&lt;/sup&gt;stream_id: &amp;lt;stream1&amp;gt;&lt;br style=&quot;font-size: 8px&quot;&gt;&lt;/font&gt;" style="text;html=1;align=center;verticalAlign=middle;resizable=0;points=[];autosize=1;fontSize=8;fontFamily=Fira Code;fontStyle=0;fontColor=#FFFFFF;rotation=0;fontSource=https%3A%2F%2Ffonts.googleapis.com%2Fcss%3Ffamily%3DFira%2BCode;" parent="rpC4eVHN4_A3vbLjmgdy-1" vertex="1">
          <mxGeometry x="188" y="456" width="142" height="52" as="geometry" />
        </mxCell>
        <mxCell id="rpC4eVHN4_A3vbLjmgdy-33" value="&lt;div&gt;1. Mgr client is a client of &lt;a href=&quot;https://raw.githack.com/nokia/srlinux-ndk-protobufs/protos/doc/index.html#ndk.SdkMgrService&quot;&gt;&lt;font&gt;SdkMgrService&lt;/font&gt;&lt;/a&gt;&lt;/div&gt;&lt;font&gt;2. Notif client is a client of &lt;a href=&quot;https://raw.githack.com/nokia/srlinux-ndk-protobufs/protos/doc/index.html#ndk.SdkNotificationService&quot; style=&quot;font-size: 10px&quot;&gt;SdkNotificationService&lt;/a&gt;&lt;br&gt;3. One of subscription request types&lt;br&gt;4. Stream ID from &lt;font data-font-src=&quot;https://fonts.googleapis.com/css?family=Fira+Code&quot; style=&quot;font-size: 9px&quot;&gt;&lt;font data-font-src=&quot;https://fonts.googleapis.com/css?family=Fira+Code&quot;&gt;NotificationRegisterResponse&lt;/font&gt;&lt;br&gt;&lt;/font&gt;5. Responses contain &lt;a href=&quot;https://raw.githack.com/nokia/srlinux-ndk-protobufs/protos/doc/index.html#ndk.ConfigNotification&quot;&gt;ConfigNotification&lt;/a&gt; message&lt;br&gt;6. Prior to agent unregistration &lt;a href=&quot;https://learn.srlinux.dev/ndk/guide/dev/go/#exiting-gracefully&quot;&gt;additional&lt;/a&gt; cleanup&lt;br&gt;procedures need to be performed.&lt;br&gt;&lt;br&gt;&lt;/font&gt;" style="text;html=1;align=left;verticalAlign=middle;resizable=0;points=[];autosize=1;fontSize=10;fontFamily=Google Sans;fontStyle=0;fontColor=#001135;rotation=0;fontSource=https%3A%2F%2Ffonts.googleapis.com%2Fcss%3Ffamily%3DGoogle%2BSans;" parent="rpC4eVHN4_A3vbLjmgdy-1" vertex="1">
          <mxGeometry x="270" y="683" width="251" height="109" as="geometry" />
        </mxCell>
        <mxCell id="rpC4eVHN4_A3vbLjmgdy-34" value="" style="endArrow=oval;html=1;rounded=0;strokeColor=#FFFFFF;startArrow=classic;startFill=1;endSize=3;startSize=3;endFill=1;" parent="rpC4eVHN4_A3vbLjmgdy-1" edge="1" source="qQ9aUEZbL9tuMAHDbus5-8">
          <mxGeometry width="50" height="50" relative="1" as="geometry">
            <mxPoint x="176" y="521" as="sourcePoint" />
            <mxPoint x="341" y="521" as="targetPoint" />
          </mxGeometry>
        </mxCell>
        <mxCell id="rpC4eVHN4_A3vbLjmgdy-35" value="&lt;font style=&quot;font-size: 8px&quot;&gt;NotificationRegisterResponse&lt;br style=&quot;font-size: 8px&quot;&gt;stream_id: &amp;lt;stream1&amp;gt;&lt;br style=&quot;font-size: 8px&quot;&gt;&lt;/font&gt;" style="text;html=1;align=center;verticalAlign=middle;resizable=0;points=[];autosize=1;fontSize=8;fontFamily=Fira Code;fontStyle=0;fontColor=#FFFFFF;rotation=0;fontSource=https%3A%2F%2Ffonts.googleapis.com%2Fcss%3Ffamily%3DFira%2BCode;" parent="rpC4eVHN4_A3vbLjmgdy-1" vertex="1">
          <mxGeometry x="185" y="507" width="145" height="25" as="geometry" />
        </mxCell>
        <mxCell id="rpC4eVHN4_A3vbLjmgdy-37" value="&lt;font&gt;Sdk&lt;br&gt;Notification&lt;br&gt;Service&lt;/font&gt;" style="text;html=1;align=center;verticalAlign=middle;resizable=0;points=[];autosize=1;fontSize=14;fontFamily=Google Sans;fontStyle=0;fontColor=#FFFFFF;rotation=0;fontSource=https%3A%2F%2Ffonts.googleapis.com%2Fcss%3Ffamily%3DGoogle%2BSans;" parent="rpC4eVHN4_A3vbLjmgdy-1" vertex="1">
          <mxGeometry x="556" y="296" width="93" height="63" as="geometry" />
        </mxCell>
        <mxCell id="rpC4eVHN4_A3vbLjmgdy-38" value="" style="endArrow=none;dashed=1;html=1;rounded=0;strokeColor=#EDF3F5;" parent="rpC4eVHN4_A3vbLjmgdy-1" edge="1">
          <mxGeometry width="50" height="50" relative="1" as="geometry">
            <mxPoint x="605" y="645" as="sourcePoint" />
            <mxPoint x="604.0000000000001" y="352" as="targetPoint" />
          </mxGeometry>
        </mxCell>
        <mxCell id="rpC4eVHN4_A3vbLjmgdy-39" value="Notif Client&lt;sup&gt;&lt;font color=&quot;#98a2ae&quot;&gt;2&lt;/font&gt;&lt;/sup&gt;" style="text;html=1;align=center;verticalAlign=middle;resizable=0;points=[];autosize=1;fontSize=14;fontFamily=Google Sans;fontStyle=0;fontColor=#FFFFFF;rotation=0;fontSource=https%3A%2F%2Ffonts.googleapis.com%2Fcss%3Ffamily%3DGoogle%2BSans;" parent="rpC4eVHN4_A3vbLjmgdy-1" vertex="1">
          <mxGeometry x="418" y="323" width="95" height="32" as="geometry" />
        </mxCell>
        <mxCell id="rpC4eVHN4_A3vbLjmgdy-40" value="" style="endArrow=none;dashed=1;html=1;rounded=0;strokeColor=#EDF3F5;" parent="rpC4eVHN4_A3vbLjmgdy-1" edge="1">
          <mxGeometry width="50" height="50" relative="1" as="geometry">
            <mxPoint x="466" y="644" as="sourcePoint" />
            <mxPoint x="465" y="352" as="targetPoint" />
          </mxGeometry>
        </mxCell>
        <mxCell id="rpC4eVHN4_A3vbLjmgdy-41" value="" style="endArrow=classic;html=1;rounded=0;strokeColor=#FFFFFF;startArrow=oval;startFill=1;endSize=3;startSize=3;" parent="rpC4eVHN4_A3vbLjmgdy-1" edge="1" source="qQ9aUEZbL9tuMAHDbus5-10">
          <mxGeometry width="50" height="50" relative="1" as="geometry">
            <mxPoint x="465" y="538" as="sourcePoint" />
            <mxPoint x="605" y="538" as="targetPoint" />
          </mxGeometry>
        </mxCell>
        <mxCell id="rpC4eVHN4_A3vbLjmgdy-42" value="&lt;font style=&quot;font-size: 8px&quot;&gt;NotificationStream&lt;br style=&quot;font-size: 8px&quot;&gt;stream_id: &amp;lt;stream1&amp;gt;&lt;sup&gt;&lt;font color=&quot;#98a2ae&quot;&gt;4&lt;/font&gt;&lt;/sup&gt;&lt;br style=&quot;font-size: 8px&quot;&gt;&lt;/font&gt;" style="text;html=1;align=center;verticalAlign=middle;resizable=0;points=[];autosize=1;fontSize=8;fontFamily=Fira Code;fontStyle=0;fontColor=#FFFFFF;rotation=0;fontSource=https%3A%2F%2Ffonts.googleapis.com%2Fcss%3Ffamily%3DFira%2BCode;" parent="rpC4eVHN4_A3vbLjmgdy-1" vertex="1">
          <mxGeometry x="479" y="520" width="118" height="33" as="geometry" />
        </mxCell>
        <mxCell id="rpC4eVHN4_A3vbLjmgdy-43" value="" style="endArrow=oval;html=1;rounded=0;strokeColor=#FFFFFF;startArrow=classic;startFill=1;endSize=3;startSize=3;endFill=1;" parent="rpC4eVHN4_A3vbLjmgdy-1" edge="1">
          <mxGeometry width="50" height="50" relative="1" as="geometry">
            <mxPoint x="466" y="576" as="sourcePoint" />
            <mxPoint x="605" y="577" as="targetPoint" />
          </mxGeometry>
        </mxCell>
        <mxCell id="rpC4eVHN4_A3vbLjmgdy-44" value="&lt;font style=&quot;font-size: 8px&quot;&gt;NotificationStreamResponse&lt;sup&gt;&lt;font color=&quot;#98a2ae&quot;&gt;5&lt;/font&gt;&lt;/sup&gt;&lt;br style=&quot;font-size: 8px&quot;&gt;&lt;br style=&quot;font-size: 8px&quot;&gt;&lt;/font&gt;" style="text;html=1;align=center;verticalAlign=middle;resizable=0;points=[];autosize=1;fontSize=8;fontFamily=Fira Code;fontStyle=0;fontColor=#FFFFFF;rotation=0;fontSource=https%3A%2F%2Ffonts.googleapis.com%2Fcss%3Ffamily%3DFira%2BCode;" parent="rpC4eVHN4_A3vbLjmgdy-1" vertex="1">
          <mxGeometry x="463" y="558" width="147" height="33" as="geometry" />
        </mxCell>
        <mxCell id="rpC4eVHN4_A3vbLjmgdy-45" value="" style="ellipse;whiteSpace=wrap;html=1;aspect=fixed;fontFamily=Fira Code;fontSource=https%3A%2F%2Ffonts.googleapis.com%2Fcss%3Ffamily%3DFira%2BCode;fontSize=9;fontColor=#00C9FF;align=left;strokeColor=none;" parent="rpC4eVHN4_A3vbLjmgdy-1" vertex="1">
          <mxGeometry x="530" y="582" width="3" height="3" as="geometry" />
        </mxCell>
        <mxCell id="rpC4eVHN4_A3vbLjmgdy-46" value="" style="ellipse;whiteSpace=wrap;html=1;aspect=fixed;fontFamily=Fira Code;fontSource=https%3A%2F%2Ffonts.googleapis.com%2Fcss%3Ffamily%3DFira%2BCode;fontSize=9;fontColor=#00C9FF;align=left;strokeColor=none;" parent="rpC4eVHN4_A3vbLjmgdy-1" vertex="1">
          <mxGeometry x="530" y="587" width="3" height="3" as="geometry" />
        </mxCell>
        <mxCell id="rpC4eVHN4_A3vbLjmgdy-47" value="" style="ellipse;whiteSpace=wrap;html=1;aspect=fixed;fontFamily=Fira Code;fontSource=https%3A%2F%2Ffonts.googleapis.com%2Fcss%3Ffamily%3DFira%2BCode;fontSize=9;fontColor=#00C9FF;align=left;strokeColor=none;" parent="rpC4eVHN4_A3vbLjmgdy-1" vertex="1">
          <mxGeometry x="530" y="592" width="3" height="3" as="geometry" />
        </mxCell>
        <mxCell id="rpC4eVHN4_A3vbLjmgdy-49" value="" style="endArrow=oval;html=1;rounded=0;strokeColor=#FFFFFF;startArrow=classic;startFill=1;endSize=3;startSize=3;endFill=1;entryX=0.975;entryY=0.621;entryDx=0;entryDy=0;entryPerimeter=0;" parent="rpC4eVHN4_A3vbLjmgdy-1" target="rpC4eVHN4_A3vbLjmgdy-50" edge="1">
          <mxGeometry width="50" height="50" relative="1" as="geometry">
            <mxPoint x="467" y="606" as="sourcePoint" />
            <mxPoint x="613" y="607" as="targetPoint" />
          </mxGeometry>
        </mxCell>
        <mxCell id="rpC4eVHN4_A3vbLjmgdy-50" value="&lt;font style=&quot;font-size: 8px&quot;&gt;NotificationStreamResponse&lt;sup&gt;&lt;font color=&quot;#98a2ae&quot;&gt;5&lt;/font&gt;&lt;/sup&gt;&lt;br style=&quot;font-size: 8px&quot;&gt;&lt;br style=&quot;font-size: 8px&quot;&gt;&lt;/font&gt;" style="text;html=1;align=center;verticalAlign=middle;resizable=0;points=[];autosize=1;fontSize=8;fontFamily=Fira Code;fontStyle=0;fontColor=#FFFFFF;rotation=0;fontSource=https%3A%2F%2Ffonts.googleapis.com%2Fcss%3Ffamily%3DFira%2BCode;" parent="rpC4eVHN4_A3vbLjmgdy-1" vertex="1">
          <mxGeometry x="461.5" y="586" width="147" height="33" as="geometry" />
        </mxCell>
        <mxCell id="rpC4eVHN4_A3vbLjmgdy-51" value="" style="endArrow=classic;html=1;rounded=0;strokeColor=#EDF3F5;startArrow=oval;startFill=1;endSize=3;startSize=3;" parent="rpC4eVHN4_A3vbLjmgdy-1" edge="1" source="qQ9aUEZbL9tuMAHDbus5-13">
          <mxGeometry width="50" height="50" relative="1" as="geometry">
            <mxPoint x="177" y="625" as="sourcePoint" />
            <mxPoint x="342" y="625" as="targetPoint" />
          </mxGeometry>
        </mxCell>
        <mxCell id="rpC4eVHN4_A3vbLjmgdy-52" value="&lt;font style=&quot;font-size: 8px&quot;&gt;AgentUnRegister&lt;sup&gt;&lt;font color=&quot;#98a2ae&quot;&gt;6&lt;/font&gt;&lt;/sup&gt;&lt;/font&gt;" style="text;html=1;align=center;verticalAlign=middle;resizable=0;points=[];autosize=1;fontSize=8;fontFamily=Fira Code;fontStyle=0;fontColor=#FFFFFF;rotation=0;fontSource=https%3A%2F%2Ffonts.googleapis.com%2Fcss%3Ffamily%3DFira%2BCode;" parent="rpC4eVHN4_A3vbLjmgdy-1" vertex="1">
          <mxGeometry x="211" y="607" width="94" height="23" as="geometry" />
        </mxCell>
        <mxCell id="rpC4eVHN4_A3vbLjmgdy-57" value="&lt;div&gt;&lt;/div&gt;&lt;font&gt;L E G E N D&lt;br&gt;&lt;/font&gt;" style="text;html=1;align=left;verticalAlign=middle;resizable=0;points=[];autosize=1;fontSize=10;fontFamily=Google Sans;fontStyle=0;fontColor=#001135;rotation=0;fontSource=https%3A%2F%2Ffonts.googleapis.com%2Fcss%3Ffamily%3DGoogle%2BSans;" parent="rpC4eVHN4_A3vbLjmgdy-1" vertex="1">
          <mxGeometry x="364" y="668" width="69" height="25" as="geometry" />
        </mxCell>
        <mxCell id="qQ9aUEZbL9tuMAHDbus5-1" value="" style="endArrow=classic;html=1;rounded=0;strokeColor=#FFFFFF;startArrow=oval;startFill=1;endSize=3;startSize=3;" edge="1" parent="rpC4eVHN4_A3vbLjmgdy-1" target="qQ9aUEZbL9tuMAHDbus5-0">
          <mxGeometry width="50" height="50" relative="1" as="geometry">
            <mxPoint x="176" y="384" as="sourcePoint" />
            <mxPoint x="341" y="384" as="targetPoint" />
          </mxGeometry>
        </mxCell>
        <mxCell id="qQ9aUEZbL9tuMAHDbus5-0" value="&lt;font style=&quot;font-size: 9px;&quot; data-font-src=&quot;https://fonts.googleapis.com/css?family=Google+Sans&quot; face=&quot;Google Sans&quot;&gt;1&lt;/font&gt;" style="ellipse;whiteSpace=wrap;html=1;aspect=fixed;strokeColor=#00c9ff;fillColor=#00C9FF;align=center;verticalAlign=middle;spacing=0;spacingBottom=3;fontColor=#FFFFFF;" vertex="1" parent="rpC4eVHN4_A3vbLjmgdy-1">
          <mxGeometry x="170" y="378" width="12" height="12" as="geometry" />
        </mxCell>
        <mxCell id="qQ9aUEZbL9tuMAHDbus5-3" value="" style="endArrow=classic;html=1;rounded=0;strokeColor=#FFFFFF;startArrow=oval;startFill=1;endSize=3;startSize=3;" edge="1" parent="rpC4eVHN4_A3vbLjmgdy-1" target="qQ9aUEZbL9tuMAHDbus5-2">
          <mxGeometry width="50" height="50" relative="1" as="geometry">
            <mxPoint x="176" y="412" as="sourcePoint" />
            <mxPoint x="341" y="412" as="targetPoint" />
          </mxGeometry>
        </mxCell>
        <mxCell id="qQ9aUEZbL9tuMAHDbus5-2" value="&lt;font style=&quot;font-size: 9px;&quot; data-font-src=&quot;https://fonts.googleapis.com/css?family=Google+Sans&quot; face=&quot;Google Sans&quot;&gt;2&lt;/font&gt;" style="ellipse;whiteSpace=wrap;html=1;aspect=fixed;strokeColor=#00c9ff;fillColor=#00C9FF;align=center;verticalAlign=middle;spacing=0;spacingBottom=3;fontColor=#FFFFFF;" vertex="1" parent="rpC4eVHN4_A3vbLjmgdy-1">
          <mxGeometry x="170" y="405.5" width="12" height="12" as="geometry" />
        </mxCell>
        <mxCell id="qQ9aUEZbL9tuMAHDbus5-5" value="" style="endArrow=oval;html=1;rounded=0;strokeColor=#FFFFFF;startArrow=classic;startFill=1;endSize=3;startSize=3;endFill=1;" edge="1" parent="rpC4eVHN4_A3vbLjmgdy-1" target="qQ9aUEZbL9tuMAHDbus5-4">
          <mxGeometry width="50" height="50" relative="1" as="geometry">
            <mxPoint x="176" y="439" as="sourcePoint" />
            <mxPoint x="341" y="439" as="targetPoint" />
          </mxGeometry>
        </mxCell>
        <mxCell id="qQ9aUEZbL9tuMAHDbus5-4" value="&lt;font style=&quot;font-size: 9px;&quot; data-font-src=&quot;https://fonts.googleapis.com/css?family=Google+Sans&quot; face=&quot;Google Sans&quot;&gt;3&lt;/font&gt;" style="ellipse;whiteSpace=wrap;html=1;aspect=fixed;strokeColor=#00c9ff;fillColor=#00C9FF;align=center;verticalAlign=middle;spacing=0;spacingBottom=3;fontColor=#FFFFFF;" vertex="1" parent="rpC4eVHN4_A3vbLjmgdy-1">
          <mxGeometry x="334.5" y="432.5" width="12" height="12" as="geometry" />
        </mxCell>
        <mxCell id="qQ9aUEZbL9tuMAHDbus5-7" value="" style="endArrow=classic;html=1;rounded=0;strokeColor=#FFFFFF;startArrow=oval;startFill=1;endSize=3;startSize=3;" edge="1" parent="rpC4eVHN4_A3vbLjmgdy-1" target="qQ9aUEZbL9tuMAHDbus5-6">
          <mxGeometry width="50" height="50" relative="1" as="geometry">
            <mxPoint x="176" y="473" as="sourcePoint" />
            <mxPoint x="341" y="473" as="targetPoint" />
          </mxGeometry>
        </mxCell>
        <mxCell id="qQ9aUEZbL9tuMAHDbus5-6" value="&lt;font style=&quot;font-size: 9px;&quot; data-font-src=&quot;https://fonts.googleapis.com/css?family=Google+Sans&quot; face=&quot;Google Sans&quot;&gt;4&lt;/font&gt;" style="ellipse;whiteSpace=wrap;html=1;aspect=fixed;strokeColor=#00c9ff;fillColor=#00C9FF;align=center;verticalAlign=middle;spacing=0;spacingBottom=3;fontColor=#FFFFFF;" vertex="1" parent="rpC4eVHN4_A3vbLjmgdy-1">
          <mxGeometry x="170" y="467" width="12" height="12" as="geometry" />
        </mxCell>
        <mxCell id="qQ9aUEZbL9tuMAHDbus5-9" value="" style="endArrow=oval;html=1;rounded=0;strokeColor=#FFFFFF;startArrow=classic;startFill=1;endSize=3;startSize=3;endFill=1;" edge="1" parent="rpC4eVHN4_A3vbLjmgdy-1" target="qQ9aUEZbL9tuMAHDbus5-8">
          <mxGeometry width="50" height="50" relative="1" as="geometry">
            <mxPoint x="176" y="521" as="sourcePoint" />
            <mxPoint x="341" y="521" as="targetPoint" />
          </mxGeometry>
        </mxCell>
        <mxCell id="qQ9aUEZbL9tuMAHDbus5-8" value="&lt;font style=&quot;font-size: 9px;&quot; data-font-src=&quot;https://fonts.googleapis.com/css?family=Google+Sans&quot; face=&quot;Google Sans&quot;&gt;5&lt;/font&gt;" style="ellipse;whiteSpace=wrap;html=1;aspect=fixed;strokeColor=#00c9ff;fillColor=#00C9FF;align=center;verticalAlign=middle;spacing=0;spacingBottom=3;fontColor=#FFFFFF;" vertex="1" parent="rpC4eVHN4_A3vbLjmgdy-1">
          <mxGeometry x="334.5" y="514.5" width="12" height="12" as="geometry" />
        </mxCell>
        <mxCell id="qQ9aUEZbL9tuMAHDbus5-11" value="" style="endArrow=classic;html=1;rounded=0;strokeColor=#FFFFFF;startArrow=oval;startFill=1;endSize=3;startSize=3;" edge="1" parent="rpC4eVHN4_A3vbLjmgdy-1" target="qQ9aUEZbL9tuMAHDbus5-10">
          <mxGeometry width="50" height="50" relative="1" as="geometry">
            <mxPoint x="465" y="538" as="sourcePoint" />
            <mxPoint x="605" y="538" as="targetPoint" />
          </mxGeometry>
        </mxCell>
        <mxCell id="qQ9aUEZbL9tuMAHDbus5-10" value="&lt;font style=&quot;font-size: 9px;&quot; data-font-src=&quot;https://fonts.googleapis.com/css?family=Google+Sans&quot; face=&quot;Google Sans&quot;&gt;6&lt;/font&gt;" style="ellipse;whiteSpace=wrap;html=1;aspect=fixed;strokeColor=#00c9ff;fillColor=#00C9FF;align=center;verticalAlign=middle;spacing=0;spacingBottom=3;fontColor=#FFFFFF;" vertex="1" parent="rpC4eVHN4_A3vbLjmgdy-1">
          <mxGeometry x="459.5" y="532" width="12" height="12" as="geometry" />
        </mxCell>
        <mxCell id="qQ9aUEZbL9tuMAHDbus5-12" value="&lt;font style=&quot;font-size: 9px;&quot; data-font-src=&quot;https://fonts.googleapis.com/css?family=Google+Sans&quot; face=&quot;Google Sans&quot;&gt;7&lt;/font&gt;" style="ellipse;whiteSpace=wrap;html=1;aspect=fixed;strokeColor=#00c9ff;fillColor=#00C9FF;align=center;verticalAlign=middle;spacing=0;spacingBottom=3;fontColor=#FFFFFF;" vertex="1" parent="rpC4eVHN4_A3vbLjmgdy-1">
          <mxGeometry x="600" y="570" width="12" height="12" as="geometry" />
        </mxCell>
        <mxCell id="qQ9aUEZbL9tuMAHDbus5-14" value="" style="endArrow=classic;html=1;rounded=0;strokeColor=#EDF3F5;startArrow=oval;startFill=1;endSize=3;startSize=3;" edge="1" parent="rpC4eVHN4_A3vbLjmgdy-1" target="qQ9aUEZbL9tuMAHDbus5-13">
          <mxGeometry width="50" height="50" relative="1" as="geometry">
            <mxPoint x="177" y="625" as="sourcePoint" />
            <mxPoint x="342" y="625" as="targetPoint" />
          </mxGeometry>
        </mxCell>
        <mxCell id="qQ9aUEZbL9tuMAHDbus5-13" value="&lt;font style=&quot;font-size: 9px;&quot; data-font-src=&quot;https://fonts.googleapis.com/css?family=Google+Sans&quot; face=&quot;Google Sans&quot;&gt;8&lt;/font&gt;" style="ellipse;whiteSpace=wrap;html=1;aspect=fixed;strokeColor=#00c9ff;fillColor=#00C9FF;align=center;verticalAlign=middle;spacing=0;spacingBottom=3;fontColor=#FFFFFF;" vertex="1" parent="rpC4eVHN4_A3vbLjmgdy-1">
          <mxGeometry x="170" y="619" width="12" height="12" as="geometry" />
        </mxCell>
      </root>
    </mxGraphModel>
  </diagram>
  <diagram name="[4] ndk telemetry" id="-ZSv98kSd2MsTy0nA9-U">
    <mxGraphModel dx="437" dy="277" grid="1" gridSize="5" guides="1" tooltips="1" connect="1" arrows="1" fold="1" page="1" pageScale="1" pageWidth="827" pageHeight="1169" background="#495766" math="0" shadow="0">
      <root>
        <mxCell id="TIKCRUf47VzGktWiAVfS-0" />
        <mxCell id="TIKCRUf47VzGktWiAVfS-1" parent="TIKCRUf47VzGktWiAVfS-0" />
        <mxCell id="TIKCRUf47VzGktWiAVfS-3" value="Telemetry Client" style="text;html=1;align=center;verticalAlign=middle;resizable=0;points=[];autosize=1;fontSize=14;fontFamily=Google Sans;fontStyle=0;fontColor=#FFFFFF;rotation=0;fontSource=https%3A%2F%2Ffonts.googleapis.com%2Fcss%3Ffamily%3DGoogle%2BSans;" parent="TIKCRUf47VzGktWiAVfS-1" vertex="1">
          <mxGeometry x="276" y="321" width="125" height="35" as="geometry" />
        </mxCell>
        <mxCell id="TIKCRUf47VzGktWiAVfS-4" value="" style="endArrow=none;dashed=1;html=1;rounded=0;strokeColor=#EDF3F5;" parent="TIKCRUf47VzGktWiAVfS-1" edge="1">
          <mxGeometry width="50" height="50" relative="1" as="geometry">
            <mxPoint x="338" y="460" as="sourcePoint" />
            <mxPoint x="338" y="352" as="targetPoint" />
          </mxGeometry>
        </mxCell>
        <mxCell id="TIKCRUf47VzGktWiAVfS-5" value="&lt;font&gt;Sdk&lt;br&gt;Manager&lt;br&gt;Telemetry&lt;br&gt;Service&lt;/font&gt;" style="text;html=1;align=center;verticalAlign=middle;resizable=0;points=[];autosize=1;fontSize=14;fontFamily=Google Sans;fontStyle=0;fontColor=#FFFFFF;rotation=0;fontSource=https%3A%2F%2Ffonts.googleapis.com%2Fcss%3Ffamily%3DGoogle%2BSans;" parent="TIKCRUf47VzGktWiAVfS-1" vertex="1">
          <mxGeometry x="460" y="286" width="85" height="85" as="geometry" />
        </mxCell>
        <mxCell id="TIKCRUf47VzGktWiAVfS-6" value="" style="endArrow=none;dashed=1;html=1;rounded=0;strokeColor=#EDF3F5;" parent="TIKCRUf47VzGktWiAVfS-1" edge="1">
          <mxGeometry width="50" height="50" relative="1" as="geometry">
            <mxPoint x="503" y="460" as="sourcePoint" />
            <mxPoint x="503.0000000000001" y="352" as="targetPoint" />
          </mxGeometry>
        </mxCell>
        <mxCell id="TIKCRUf47VzGktWiAVfS-7" value="" style="endArrow=classic;html=1;rounded=0;strokeColor=#FFFFFF;startArrow=oval;startFill=1;endSize=3;startSize=3;" parent="TIKCRUf47VzGktWiAVfS-1" edge="1">
          <mxGeometry width="50" height="50" relative="1" as="geometry">
            <mxPoint x="338" y="384" as="sourcePoint" />
            <mxPoint x="503" y="384" as="targetPoint" />
          </mxGeometry>
        </mxCell>
        <mxCell id="TIKCRUf47VzGktWiAVfS-8" value="&lt;font style=&quot;font-size: 8px&quot;&gt;TelemetryUpdateRequest&lt;br&gt;TelemtryInfo&lt;br&gt;&lt;/font&gt;" style="text;html=1;align=center;verticalAlign=middle;resizable=0;points=[];autosize=1;fontSize=8;fontFamily=Fira Code;fontStyle=0;fontColor=#FFFFFF;rotation=0;fontSource=https%3A%2F%2Ffonts.googleapis.com%2Fcss%3Ffamily%3DFira%2BCode;" parent="TIKCRUf47VzGktWiAVfS-1" vertex="1">
          <mxGeometry x="360" y="371" width="117" height="25" as="geometry" />
        </mxCell>
        <mxCell id="TIKCRUf47VzGktWiAVfS-10" value="&lt;font style=&quot;font-size: 8px&quot;&gt;&lt;br style=&quot;font-size: 8px&quot;&gt;&lt;/font&gt;" style="text;html=1;align=center;verticalAlign=middle;resizable=0;points=[];autosize=1;fontSize=8;fontFamily=Fira Code;fontStyle=0;fontColor=#FFFFFF;rotation=0;fontSource=https%3A%2F%2Ffonts.googleapis.com%2Fcss%3Ffamily%3DFira%2BCode;" parent="TIKCRUf47VzGktWiAVfS-1" vertex="1">
          <mxGeometry x="414" y="403" width="11" height="15" as="geometry" />
        </mxCell>
        <mxCell id="TIKCRUf47VzGktWiAVfS-11" value="" style="endArrow=oval;html=1;rounded=0;strokeColor=#FFFFFF;startArrow=classic;startFill=1;endSize=3;startSize=3;endFill=1;" parent="TIKCRUf47VzGktWiAVfS-1" edge="1">
          <mxGeometry width="50" height="50" relative="1" as="geometry">
            <mxPoint x="338" y="439" as="sourcePoint" />
            <mxPoint x="503" y="439" as="targetPoint" />
          </mxGeometry>
        </mxCell>
        <mxCell id="TIKCRUf47VzGktWiAVfS-12" value="&lt;font style=&quot;font-size: 8px&quot;&gt;TelemetryUpdateResponse&lt;br style=&quot;font-size: 8px&quot;&gt;status&lt;br style=&quot;font-size: 8px&quot;&gt;&lt;/font&gt;" style="text;html=1;align=center;verticalAlign=middle;resizable=0;points=[];autosize=1;fontSize=8;fontFamily=Fira Code;fontStyle=0;fontColor=#FFFFFF;rotation=0;fontSource=https%3A%2F%2Ffonts.googleapis.com%2Fcss%3Ffamily%3DFira%2BCode;" parent="TIKCRUf47VzGktWiAVfS-1" vertex="1">
          <mxGeometry x="359" y="425" width="121" height="25" as="geometry" />
        </mxCell>
      </root>
    </mxGraphModel>
  </diagram>
</mxfile>
